<svg width="336" height="562" viewBox="0 0 336 562" fill="none" xmlns="http://www.w3.org/2000/svg">
<g filter="url(#filter0_d_4998_40998)">
<rect x="16.8738" y="5" width="302.752" height="528" rx="6.45872" fill="white"/>
<g clip-path="url(#clip0_4998_40998)">
<rect x="29.7913" y="15.4951" width="276.917" height="20.9908" rx="6.45872" fill="#D9D9D9"/>
<rect x="29.7913" y="46.1743" width="276.917" height="20.9908" rx="6.45872" fill="#D9D9D9"/>
<rect width="302.752" height="58.1284" transform="translate(16.8738 71.2017)" fill="white"/>
<g clip-path="url(#clip1_4998_40998)" filter="url(#filter1_dd_4998_40998)">
<path d="M156.544 86.5962H36.2502V103.266H156.544V86.5962Z" fill="white"/>
<path d="M156.544 86.5962H36.2502V103.266H156.544V86.5962Z" fill="white"/>
<path d="M51.0787 97.7649L50.4386 100.242H41.3755L44.023 90.0947H47.5315L45.5035 97.7649H51.0787Z" fill="#E1251B"/>
<path d="M53.0242 94.9129C53.2324 94.2138 53.6771 93.6768 54.3608 93.2968C55.0419 92.9244 56.0906 92.7319 57.5018 92.7319C59.0954 92.7319 60.1724 92.9118 60.7225 93.2715C61.2777 93.6388 61.5424 94.1631 61.5218 94.8572C61.509 95.3182 61.3471 96.0807 61.0438 97.1344C60.7507 98.135 60.6042 98.8316 60.5939 99.2217C60.5862 99.5535 60.6453 99.8955 60.7662 100.24H57.728C57.6611 99.9487 57.6329 99.6726 57.6354 99.404C56.8001 100.078 55.8824 100.415 54.8774 100.415C53.8724 100.415 53.1167 100.197 52.6772 99.7612C52.2402 99.3255 52.0243 98.8265 52.0423 98.2515C52.0577 97.603 52.2685 97.1065 52.6798 96.7646C53.091 96.4226 53.5922 96.1921 54.1809 96.0705C54.7746 95.9464 55.5817 95.84 56.5996 95.7488C57.5095 95.6602 58.111 95.5715 58.4168 95.4904C58.4837 95.2751 58.5171 95.108 58.5248 94.9914C58.5274 94.804 58.4245 94.6571 58.2241 94.5507C58.021 94.4367 57.7485 94.386 57.4015 94.386C57.0545 94.386 56.7564 94.4367 56.5276 94.538C56.3014 94.6444 56.0984 94.8622 55.9261 95.1941L53.0242 94.9104V94.9129ZM58.0313 96.9546C56.5893 97.1724 55.7436 97.3624 55.4866 97.5296C55.2347 97.6968 55.0985 97.8943 55.0959 98.1198C55.0856 98.3528 55.1704 98.5403 55.3478 98.6771C55.5226 98.8088 55.7514 98.8797 56.0315 98.8797C56.4248 98.8797 56.8232 98.7328 57.2165 98.4491C57.6072 98.1578 57.8822 97.6613 58.0287 96.9546" fill="#E1251B"/>
<path d="M79.3966 90.0947L78.8234 92.2757H73.1197L72.7007 93.8867H78.2039L77.641 95.9461H72.1481L71.6212 97.9321H77.8132L77.2015 100.242H67.5471L70.21 90.0947H79.3966Z" fill="#E1251B"/>
<path d="M89.0149 95.455L86.185 95.5918C86.0693 94.9509 85.604 94.6292 84.7764 94.6292C84.013 94.6292 83.4218 94.9078 82.9977 95.4626C82.571 96.0173 82.3525 96.6253 82.332 97.2813C82.3217 97.679 82.4579 97.9805 82.7484 98.1932C83.0285 98.406 83.3421 98.5099 83.684 98.5099C84.5116 98.5099 85.1465 98.0944 85.5732 97.2661L88.488 97.5524C87.7118 99.4598 86.0564 100.417 83.5118 100.417C80.6407 100.417 79.2347 99.3534 79.2938 97.2357C79.3221 96.0072 79.8233 94.9458 80.7897 94.0593C81.7613 93.1752 83.1082 92.7319 84.8201 92.7319C86.0539 92.7319 87.0332 92.9574 87.758 93.4159C88.4803 93.8718 88.8993 94.5481 89.0098 95.455" fill="#E1251B"/>
<path d="M94.996 92.7344C96.456 92.7344 97.5099 93.0662 98.1602 93.7299C98.8079 94.3961 99.1266 95.1712 99.0984 96.0628C99.0804 96.7417 98.867 97.4332 98.4712 98.1298C98.0625 98.8315 97.4765 99.3888 96.6899 99.8016C95.9137 100.212 94.9626 100.42 93.8368 100.42C92.4102 100.42 91.3667 100.103 90.6984 99.4647C90.0352 98.8315 89.7191 98.0412 89.7371 97.0989C89.7602 96.3491 89.9838 95.6373 90.4105 94.9432C90.8295 94.2517 91.4335 93.7096 92.2175 93.3195C93.004 92.932 93.9268 92.7369 94.9935 92.7369M94.0836 98.5148C94.6696 98.5148 95.1374 98.2489 95.4973 97.7093C95.8494 97.1749 96.037 96.577 96.055 95.9184C96.0627 95.4448 95.9445 95.1129 95.6875 94.9179C95.433 94.7279 95.1451 94.6316 94.8315 94.6316C94.171 94.6316 93.6697 94.9002 93.3227 95.4397C92.9783 95.9792 92.7984 96.5315 92.7855 97.0963C92.7752 97.4991 92.8986 97.841 93.1428 98.1121C93.3998 98.3806 93.7109 98.5148 94.0836 98.5148Z" fill="#E1251B"/>
<path d="M104.27 94.0364C105.157 93.1675 106.211 92.7344 107.452 92.7344C108.188 92.7344 108.735 92.9041 109.1 93.2435C109.457 93.583 109.632 93.9984 109.614 94.4923C109.606 94.7887 109.493 95.3713 109.262 96.2351L108.216 100.242H105.085L105.977 96.8304C106.198 95.997 106.306 95.5157 106.309 95.3966C106.319 94.9913 106.113 94.7887 105.71 94.7887C105.25 94.7887 104.843 94.9812 104.486 95.3738C104.137 95.7614 103.859 96.3263 103.669 97.0609L102.818 100.24H99.6719L101.613 92.8965H104.535L104.239 94.0034L104.263 94.0338L104.27 94.0364Z" fill="#E1251B"/>
<path d="M115.947 92.7344C117.402 92.7344 118.459 93.0662 119.109 93.7324C119.759 94.3961 120.07 95.1737 120.052 96.0654C120.027 96.7442 119.818 97.4358 119.42 98.1349C119.016 98.8365 118.428 99.3913 117.649 99.8042C116.87 100.215 115.917 100.422 114.788 100.422C113.364 100.422 112.318 100.106 111.655 99.4673C110.992 98.834 110.67 98.0437 110.699 97.1014C110.719 96.3516 110.938 95.6398 111.362 94.9457C111.786 94.2542 112.39 93.7147 113.171 93.322C113.95 92.9345 114.878 92.7394 115.947 92.7394M115.04 98.5199C115.621 98.5199 116.091 98.2539 116.449 97.7144C116.806 97.1799 116.991 96.5821 117.006 95.9235C117.019 95.4498 116.896 95.118 116.644 94.9229C116.384 94.733 116.099 94.6367 115.78 94.6367C115.125 94.6367 114.626 94.9027 114.279 95.4448C113.935 95.9843 113.755 96.539 113.739 97.1014C113.729 97.5041 113.853 97.8461 114.102 98.1172C114.356 98.3857 114.667 98.5199 115.04 98.5199Z" fill="#E1251B"/>
<path d="M130.426 93.9806C131.027 93.4994 131.575 93.1726 132.068 92.9978C132.554 92.8205 133.073 92.7344 133.621 92.7344C134.356 92.7344 134.906 92.9117 135.263 93.2638C135.626 93.6159 135.795 94.0465 135.78 94.5481C135.777 94.8495 135.734 95.1383 135.659 95.422L134.374 100.245H131.241L132.074 97.1115C132.282 96.3111 132.4 95.8349 132.426 95.6829C132.454 95.5284 132.467 95.4245 132.467 95.3612C132.475 94.9812 132.282 94.7887 131.881 94.7887C131.413 94.7887 131.027 94.9685 130.711 95.3156C130.4 95.6651 130.143 96.2224 129.945 96.9773L129.087 100.245H125.951L126.763 97.1647C126.982 96.3364 127.102 95.8526 127.126 95.7006C127.156 95.5461 127.172 95.4346 127.172 95.351C127.182 94.9787 126.974 94.7912 126.555 94.7912C126.239 94.7912 125.907 94.9381 125.545 95.2295C125.185 95.5233 124.915 96.0198 124.727 96.7214L123.789 100.245H120.643L122.589 92.9016H125.493L125.213 93.9553L125.241 93.9832C126.154 93.1523 127.174 92.7369 128.29 92.7369C128.801 92.7369 129.249 92.8458 129.637 93.0611C130.03 93.2765 130.295 93.588 130.426 93.9832" fill="#E1251B"/>
<path d="M141.497 92.8988L139.559 100.242H136.423L138.356 92.8988H141.5H141.497ZM142.972 89.9199L140.117 91.9869H138.6L140.353 89.9199H142.975H142.972Z" fill="#E1251B"/>
<path d="M142.918 94.9129C143.127 94.2163 143.569 93.6793 144.252 93.2968C144.934 92.9244 145.98 92.7319 147.396 92.7319C148.995 92.7319 150.072 92.9118 150.622 93.2715C151.172 93.6362 151.437 94.1606 151.419 94.8546C151.406 95.3157 151.246 96.0781 150.938 97.1344C150.653 98.1324 150.501 98.829 150.496 99.2217C150.483 99.5535 150.542 99.8955 150.668 100.24H147.62C147.561 99.9487 147.53 99.6726 147.537 99.404C146.705 100.078 145.782 100.415 144.772 100.415C143.762 100.415 143.008 100.194 142.574 99.7612C142.134 99.3255 141.921 98.824 141.937 98.2515C141.955 97.6005 142.168 97.1065 142.577 96.7671C142.99 96.4252 143.489 96.1921 144.08 96.0705C144.671 95.9464 145.481 95.8425 146.494 95.7488C147.401 95.6602 148.01 95.5715 148.309 95.4904C148.378 95.2751 148.414 95.1054 148.416 94.9914C148.422 94.804 148.327 94.6545 148.116 94.5507C147.91 94.4367 147.638 94.386 147.296 94.386C146.954 94.386 146.648 94.4367 146.424 94.538C146.198 94.6444 145.998 94.8622 145.82 95.1941L142.918 94.9104V94.9129ZM147.928 96.9546C146.484 97.1724 145.638 97.3624 145.383 97.5296C145.126 97.6968 144.998 97.8943 144.99 98.1198C144.985 98.3528 145.067 98.5403 145.25 98.6771C145.422 98.8088 145.648 98.8797 145.931 98.8797C146.324 98.8797 146.72 98.7328 147.116 98.4491C147.507 98.1578 147.776 97.6613 147.928 96.9546Z" fill="#E1251B"/>
<path d="M156.544 103.266H36.2502V113.935H156.544V103.266Z" fill="#1A428A"/>
<path d="M76.1577 105.245H78.6253C79.1111 105.245 79.5043 105.311 79.8051 105.44C80.1032 105.569 80.3526 105.756 80.5479 106C80.7433 106.243 80.8846 106.526 80.972 106.848C81.0594 107.17 81.1031 107.514 81.1031 107.874C81.1031 108.441 81.0363 108.88 80.9078 109.191C80.7767 109.503 80.5942 109.764 80.3628 109.976C80.1315 110.187 79.8822 110.329 79.6149 110.397C79.2499 110.493 78.9209 110.541 78.6253 110.541H76.1577V105.242V105.245ZM77.8182 106.445V109.341H78.2243C78.5713 109.341 78.8181 109.303 78.9646 109.227C79.1111 109.151 79.2267 109.019 79.309 108.829C79.3912 108.639 79.4349 108.333 79.4349 107.91C79.4349 107.347 79.3424 106.965 79.1573 106.757C78.9723 106.549 78.6638 106.445 78.232 106.445H77.8182Z" fill="#FFE800"/>
<path d="M82.0439 106.706H83.4422V107.334C83.5759 107.063 83.7147 106.876 83.8586 106.772C84.0026 106.67 84.1774 106.617 84.3881 106.617C84.5989 106.617 84.8482 106.686 85.1104 106.82L84.6477 107.869C84.4729 107.795 84.3316 107.76 84.2288 107.76C84.0334 107.76 83.8818 107.838 83.7738 107.998C83.6196 108.221 83.5425 108.641 83.5425 109.257V110.543H82.0439V106.706Z" fill="#FFE800"/>
<path d="M85.45 108.636C85.45 108.051 85.6504 107.567 86.0514 107.19C86.4524 106.81 86.9947 106.62 87.6759 106.62C88.4547 106.62 89.0459 106.843 89.4443 107.288C89.7656 107.648 89.925 108.089 89.925 108.616C89.925 109.206 89.7271 109.69 89.3286 110.067C88.9302 110.445 88.3827 110.632 87.681 110.632C87.0539 110.632 86.5501 110.475 86.1619 110.163C85.6864 109.776 85.45 109.267 85.45 108.638M86.9459 108.636C86.9459 108.978 87.0153 109.231 87.1567 109.396C87.2981 109.561 87.4728 109.642 87.6862 109.642C87.8995 109.642 88.0769 109.561 88.2157 109.398C88.3545 109.236 88.4239 108.978 88.4239 108.621C88.4239 108.289 88.3545 108.041 88.2157 107.879C88.0769 107.716 87.9047 107.635 87.699 107.635C87.4805 107.635 87.3006 107.719 87.1592 107.884C87.0179 108.048 86.9459 108.299 86.9459 108.636Z" fill="#FFE800"/>
<path d="M93.505 106.706H94.9032V110.5C94.9058 110.741 94.8544 110.971 94.7516 111.189C94.6488 111.407 94.51 111.584 94.3378 111.719C94.1655 111.853 93.9471 111.952 93.6797 112.013C93.415 112.073 93.1117 112.104 92.7698 112.104C91.9884 112.104 91.4512 111.987 91.1582 111.757C90.8652 111.526 90.7187 111.215 90.7187 110.827C90.7187 110.779 90.7212 110.713 90.7264 110.632L92.1761 110.794C92.2121 110.926 92.2686 111.017 92.3457 111.068C92.4562 111.144 92.595 111.179 92.7595 111.179C92.9755 111.179 93.1348 111.123 93.2428 111.009C93.3482 110.895 93.4021 110.698 93.4021 110.417V109.834C93.2556 110.006 93.1091 110.13 92.9626 110.206C92.7338 110.328 92.4845 110.386 92.2172 110.386C91.6954 110.386 91.2764 110.163 90.9551 109.715C90.7264 109.396 90.6133 108.975 90.6133 108.454C90.6133 107.856 90.7598 107.4 91.0528 107.088C91.3458 106.774 91.7314 106.62 92.2043 106.62C92.5076 106.62 92.757 106.67 92.9549 106.772C93.1528 106.873 93.3353 107.04 93.5075 107.273V106.706H93.505ZM92.099 108.568C92.099 108.844 92.1581 109.049 92.2789 109.183C92.3997 109.317 92.5565 109.383 92.7518 109.383C92.9472 109.383 93.0937 109.315 93.2196 109.175C93.3456 109.036 93.4099 108.828 93.4099 108.55C93.4099 108.271 93.343 108.056 93.2119 107.909C93.0808 107.76 92.9189 107.686 92.7287 107.686C92.5385 107.686 92.3868 107.754 92.2712 107.891C92.1581 108.028 92.1015 108.253 92.1015 108.57" fill="#FFE800"/>
<path d="M100.06 110.544H98.667V109.923C98.4588 110.179 98.2506 110.361 98.0372 110.468C97.8265 110.577 97.5669 110.63 97.2584 110.63C96.8472 110.63 96.5259 110.508 96.292 110.268C96.058 110.024 95.9424 109.652 95.9424 109.148V106.704H97.4435V108.814C97.4435 109.054 97.4898 109.227 97.5797 109.328C97.6697 109.429 97.7982 109.48 97.9601 109.48C98.1401 109.48 98.284 109.411 98.3997 109.277C98.5128 109.143 98.5693 108.9 98.5693 108.55V106.704H100.063V110.541L100.06 110.544Z" fill="#FFE800"/>
<path d="M105.439 108.991H102.447C102.473 109.226 102.54 109.404 102.643 109.518C102.787 109.685 102.974 109.768 103.208 109.768C103.355 109.768 103.493 109.733 103.627 109.66C103.707 109.614 103.794 109.533 103.887 109.416L105.357 109.551C105.131 109.936 104.861 110.212 104.542 110.379C104.223 110.546 103.768 110.63 103.175 110.63C102.658 110.63 102.252 110.559 101.956 110.414C101.661 110.27 101.414 110.042 101.221 109.73C101.026 109.419 100.928 109.052 100.928 108.629C100.928 108.028 101.124 107.542 101.514 107.172C101.905 106.802 102.442 106.615 103.131 106.615C103.689 106.615 104.128 106.698 104.452 106.863C104.774 107.03 105.02 107.271 105.19 107.585C105.36 107.902 105.442 108.312 105.442 108.819V108.986L105.439 108.991ZM103.92 108.287C103.892 108.003 103.812 107.798 103.686 107.676C103.56 107.555 103.396 107.491 103.19 107.491C102.954 107.491 102.763 107.585 102.622 107.77C102.532 107.886 102.473 108.059 102.45 108.287H103.92Z" fill="#FFE800"/>
<path d="M106.29 106.706H107.689V107.334C107.822 107.063 107.961 106.876 108.105 106.772C108.249 106.67 108.424 106.617 108.635 106.617C108.845 106.617 109.095 106.686 109.357 106.82L108.894 107.869C108.719 107.795 108.578 107.76 108.475 107.76C108.28 107.76 108.128 107.838 108.02 107.998C107.866 108.221 107.789 108.641 107.789 109.257V110.543H106.288V106.706H106.29Z" fill="#FFE800"/>
<path d="M109.814 106.706H111.308V110.544H109.814V106.706ZM110.519 105.156H111.801L110.616 106.237H109.902L110.519 105.156Z" fill="#FFE800"/>
<path d="M113.773 107.949L112.346 107.8C112.4 107.554 112.477 107.362 112.58 107.22C112.68 107.078 112.827 106.957 113.017 106.853C113.153 106.777 113.343 106.721 113.582 106.68C113.821 106.64 114.081 106.62 114.359 106.62C114.806 106.62 115.166 106.645 115.438 106.693C115.711 106.744 115.937 106.845 116.117 107.002C116.243 107.111 116.343 107.266 116.418 107.463C116.492 107.661 116.528 107.851 116.528 108.033V109.728C116.528 109.908 116.538 110.049 116.564 110.153C116.587 110.255 116.639 110.386 116.716 110.546H115.315C115.258 110.447 115.222 110.371 115.204 110.32C115.186 110.27 115.171 110.189 115.153 110.077C114.958 110.262 114.762 110.396 114.569 110.475C114.305 110.581 113.999 110.635 113.649 110.635C113.184 110.635 112.832 110.528 112.59 110.315C112.349 110.103 112.228 109.842 112.228 109.53C112.228 109.239 112.315 108.998 112.487 108.811C112.662 108.623 112.981 108.484 113.449 108.393C114.009 108.281 114.371 108.205 114.539 108.16C114.706 108.114 114.88 108.056 115.065 107.985C115.065 107.805 115.027 107.678 114.952 107.605C114.878 107.532 114.744 107.496 114.551 107.496C114.307 107.496 114.125 107.534 114.001 107.613C113.906 107.673 113.829 107.785 113.77 107.952M115.065 108.725C114.86 108.798 114.647 108.861 114.423 108.917C114.12 108.996 113.927 109.074 113.847 109.153C113.765 109.231 113.724 109.322 113.724 109.424C113.724 109.54 113.765 109.634 113.847 109.707C113.929 109.781 114.05 109.819 114.21 109.819C114.369 109.819 114.531 109.778 114.672 109.7C114.816 109.619 114.916 109.523 114.976 109.409C115.035 109.295 115.065 109.145 115.065 108.963V108.727V108.725Z" fill="#FFE800"/>
</g>
<path d="M193.681 100.871C195.019 100.871 196.103 99.7867 196.103 98.4491C196.103 97.1114 195.019 96.0271 193.681 96.0271C192.344 96.0271 191.259 97.1114 191.259 98.4491C191.259 99.7867 192.344 100.871 193.681 100.871Z" stroke="#344054" stroke-width="1.21101" stroke-linecap="round" stroke-linejoin="round"/>
<path d="M199.736 98.4491C199.736 103.899 193.681 108.137 193.681 108.137C193.681 108.137 187.626 103.899 187.626 98.4491C187.626 96.8432 188.264 95.3031 189.4 94.1675C190.535 93.032 192.075 92.394 193.681 92.394C195.287 92.394 196.827 93.032 197.963 94.1675C199.098 95.3031 199.736 96.8432 199.736 98.4491Z" stroke="#344054" stroke-width="1.21101" stroke-linecap="round" stroke-linejoin="round"/>
<path d="M218.109 106.623C217.941 106.913 218.041 107.283 218.33 107.451C218.62 107.618 218.99 107.518 219.157 107.229L218.109 106.623ZM232.792 107.229C232.959 107.518 233.33 107.618 233.619 107.451C233.909 107.283 234.008 106.913 233.841 106.623L232.792 107.229ZM230.213 97.8435C230.213 100.184 228.316 102.082 225.975 102.082V103.293C228.984 103.293 231.424 100.853 231.424 97.8435H230.213ZM225.975 102.082C223.634 102.082 221.736 100.184 221.736 97.8435H220.525C220.525 100.853 222.965 103.293 225.975 103.293V102.082ZM221.736 97.8435C221.736 95.5027 223.634 93.605 225.975 93.605V92.394C222.965 92.394 220.525 94.8338 220.525 97.8435H221.736ZM225.975 93.605C228.316 93.605 230.213 95.5027 230.213 97.8435H231.424C231.424 94.8338 228.984 92.394 225.975 92.394V93.605ZM219.157 107.229C219.848 106.032 220.842 105.038 222.039 104.347L221.433 103.298C220.052 104.096 218.906 105.242 218.109 106.623L219.157 107.229ZM222.039 104.347C223.235 103.656 224.593 103.293 225.975 103.293V102.082C224.381 102.082 222.814 102.501 221.433 103.298L222.039 104.347ZM225.975 103.293C227.357 103.293 228.714 103.656 229.911 104.347L230.516 103.298C229.135 102.501 227.569 102.082 225.975 102.082V103.293ZM229.911 104.347C231.108 105.038 232.101 106.032 232.792 107.229L233.841 106.623C233.044 105.242 231.897 104.096 230.516 103.298L229.911 104.347Z" fill="#344054"/>
<path d="M257.867 92.5377L257.751 91.9434L257.749 91.9438L257.867 92.5377ZM251.759 93.7562L251.641 93.1624C251.401 93.2103 251.213 93.3978 251.165 93.6378L251.759 93.7562ZM250.541 99.8643L249.947 99.7458L249.946 99.7479L250.541 99.8643ZM250.707 100.409L251.135 99.9811L251.135 99.9806L250.707 100.409ZM258.609 108.311L259.042 107.888L259.037 107.883L258.609 108.311ZM259.464 108.311L259.036 107.883L259.031 107.888L259.464 108.311ZM266.314 101.461L265.891 101.028L265.886 101.033L266.314 101.461ZM266.314 100.606L265.886 101.034L265.891 101.039L266.314 100.606ZM258.412 92.7042L257.984 93.1319L257.984 93.1323L258.412 92.7042ZM254.938 96.6324V96.0269H254.938L254.938 96.6324ZM254.748 96.6992L254.369 96.2275L254.748 96.6992ZM254.938 96.9351L254.466 97.3146L254.648 97.5406H254.938V96.9351ZM257.749 91.9438L251.641 93.1624L251.878 94.35L257.986 93.1315L257.749 91.9438ZM251.165 93.6378L249.947 99.7458L251.134 99.9827L252.353 93.8747L251.165 93.6378ZM249.946 99.7479C249.908 99.943 249.919 100.144 249.977 100.334L251.135 99.9806L251.135 99.9806L249.946 99.7479ZM249.977 100.334C250.035 100.525 250.139 100.697 250.279 100.838L251.135 99.9806L251.135 99.9806L249.977 100.334ZM250.279 100.837L258.181 108.739L259.037 107.883L251.135 99.9811L250.279 100.837ZM258.176 108.734C258.288 108.849 258.422 108.94 258.57 109.002L259.04 107.886C259.04 107.887 259.041 107.887 259.042 107.888L258.176 108.734ZM258.57 109.002C258.717 109.065 258.876 109.097 259.037 109.097V107.886C259.038 107.886 259.039 107.886 259.04 107.886L258.57 109.002ZM259.037 109.097C259.197 109.097 259.356 109.065 259.503 109.002L259.034 107.886C259.035 107.886 259.036 107.886 259.037 107.886V109.097ZM259.503 109.002C259.651 108.94 259.785 108.849 259.897 108.734L259.031 107.888C259.032 107.887 259.033 107.887 259.034 107.886L259.503 109.002ZM259.892 108.739L266.742 101.889L265.886 101.033L259.036 107.883L259.892 108.739ZM266.737 101.894C266.852 101.782 266.943 101.648 267.005 101.501L265.889 101.031C265.889 101.03 265.89 101.029 265.891 101.028L266.737 101.894ZM267.005 101.501C267.067 101.353 267.1 101.194 267.1 101.034H265.888C265.888 101.033 265.889 101.032 265.889 101.031L267.005 101.501ZM267.1 101.034C267.1 100.873 267.067 100.715 267.005 100.567L265.889 101.037C265.889 101.036 265.888 101.035 265.888 101.034H267.1ZM267.005 100.567C266.943 100.419 266.852 100.285 266.737 100.173L265.891 101.039C265.89 101.038 265.889 101.038 265.889 101.037L267.005 100.567ZM266.742 100.178L258.84 92.276L257.984 93.1323L265.886 101.034L266.742 100.178ZM258.841 92.2765C258.7 92.1358 258.527 92.0318 258.337 91.9737L257.984 93.1319L257.984 93.1319L258.841 92.2765ZM258.337 91.9737C258.147 91.9156 257.946 91.9052 257.751 91.9434L257.984 93.1319L257.984 93.1319L258.337 91.9737ZM255.241 96.9351C255.241 97.1023 255.105 97.2379 254.938 97.2379V98.4489C255.774 98.4489 256.452 97.7712 256.452 96.9351H255.241ZM254.938 97.2379C254.771 97.2379 254.635 97.1023 254.635 96.9351H253.424C253.424 97.7712 254.102 98.4489 254.938 98.4489V97.2379ZM254.635 96.9351C254.635 96.7679 254.771 96.6324 254.938 96.6324V95.4214C254.102 95.4214 253.424 96.0991 253.424 96.9351H254.635ZM254.938 96.6324C255.105 96.6324 255.241 96.7679 255.241 96.9351H256.452C256.452 96.0991 255.774 95.4214 254.938 95.4214V96.6324ZM254.938 96.6324C255.105 96.6324 255.241 96.7678 255.241 96.9351H254.03C254.03 97.4368 254.437 97.8434 254.938 97.8434V96.6324ZM254.635 96.9351C254.635 96.7679 254.771 96.6324 254.938 96.6324V97.8434C255.44 97.8434 255.846 97.4367 255.846 96.9351H254.635ZM254.938 97.2379C254.771 97.2379 254.635 97.1024 254.635 96.9351H255.846C255.846 96.4335 255.44 96.0269 254.938 96.0269V97.2379ZM254.51 97.0605L254.813 97.3633L255.669 96.507L255.366 96.2042L254.51 97.0605ZM254.938 96.0269C254.723 96.0269 254.524 96.1024 254.369 96.2275L255.128 97.1709C255.076 97.2124 255.01 97.2379 254.938 97.2379L254.938 96.0269ZM254.369 96.2275C254.163 96.393 254.03 96.6487 254.03 96.9351H255.241C255.241 97.0309 255.196 97.1164 255.128 97.1709L254.369 96.2275ZM254.276 97.0786C254.352 97.173 254.4 97.232 254.428 97.2674C254.442 97.2851 254.452 97.2969 254.458 97.3043C254.461 97.3079 254.463 97.3105 254.464 97.3122C254.465 97.313 254.465 97.3136 254.466 97.314C254.466 97.3142 254.466 97.3143 254.466 97.3144C254.466 97.3145 254.466 97.3145 254.466 97.3145C254.466 97.3146 254.466 97.3146 254.466 97.3146C254.466 97.3146 254.466 97.3146 254.466 97.3146C254.466 97.3146 254.466 97.3146 254.466 97.3146C254.466 97.3146 254.466 97.3146 254.938 96.9351C255.41 96.5557 255.41 96.5557 255.41 96.5557C255.41 96.5557 255.41 96.5557 255.41 96.5557C255.41 96.5557 255.41 96.5557 255.41 96.5557C255.41 96.5557 255.41 96.5557 255.41 96.5556C255.41 96.5556 255.41 96.5556 255.41 96.5555C255.41 96.5554 255.41 96.5553 255.409 96.5551C255.409 96.5547 255.409 96.5541 255.408 96.5533C255.407 96.5516 255.405 96.549 255.402 96.5454C255.396 96.538 255.386 96.5262 255.372 96.5085C255.344 96.4731 255.296 96.4141 255.22 96.3197L254.276 97.0786ZM254.938 97.5406H255.241V96.3296H254.938V97.5406Z" fill="#344054"/>
<path d="M284.076 95.4215C283.741 95.4215 283.47 95.6926 283.47 96.027C283.47 96.3614 283.741 96.6325 284.076 96.6325V95.4215ZM297.654 96.027L298.236 96.1934C298.288 96.0107 298.252 95.8141 298.137 95.6624C298.023 95.5107 297.844 95.4215 297.654 95.4215V96.027ZM295.656 103.021L295.074 102.854L295.073 102.857L295.656 103.021ZM294.49 103.899L294.494 103.293H294.49V103.899ZM287.239 103.899V103.293L287.236 103.293L287.239 103.899ZM286.074 103.021L286.657 102.857L286.656 102.854L286.074 103.021ZM283.334 93.4385L283.916 93.272L283.916 93.272L283.334 93.4385ZM282.751 92.9995V93.605L282.752 93.605L282.751 92.9995ZM281.479 92.394C281.145 92.394 280.874 92.6651 280.874 92.9995C280.874 93.3339 281.145 93.605 281.479 93.605V92.394ZM286.929 108.743C287.932 108.743 288.746 107.929 288.746 106.926H287.535C287.535 107.261 287.263 107.532 286.929 107.532V108.743ZM288.746 106.926C288.746 105.923 287.932 105.11 286.929 105.11V106.321C287.263 106.321 287.535 106.592 287.535 106.926H288.746ZM286.929 105.11C285.926 105.11 285.113 105.923 285.113 106.926H286.324C286.324 106.592 286.595 106.321 286.929 106.321V105.11ZM285.113 106.926C285.113 107.929 285.926 108.743 286.929 108.743V107.532C286.595 107.532 286.324 107.261 286.324 106.926H285.113ZM294.801 108.743C295.804 108.743 296.617 107.929 296.617 106.926H295.406C295.406 107.261 295.135 107.532 294.801 107.532V108.743ZM296.617 106.926C296.617 105.923 295.804 105.11 294.801 105.11V106.321C295.135 106.321 295.406 106.592 295.406 106.926H296.617ZM294.801 105.11C293.797 105.11 292.984 105.923 292.984 106.926H294.195C294.195 106.592 294.466 106.321 294.801 106.321V105.11ZM292.984 106.926C292.984 107.929 293.797 108.743 294.801 108.743V107.532C294.466 107.532 294.195 107.261 294.195 106.926H292.984ZM284.076 96.6325H297.654V95.4215H284.076V96.6325ZM297.072 95.8607L295.074 102.854L296.238 103.187L298.236 96.1934L297.072 95.8607ZM295.073 102.857C295.038 102.983 294.962 103.094 294.857 103.173L295.586 104.14C295.902 103.902 296.132 103.566 296.239 103.184L295.073 102.857ZM294.857 103.173C294.752 103.252 294.625 103.294 294.494 103.293L294.487 104.504C294.883 104.506 295.269 104.379 295.586 104.14L294.857 103.173ZM294.49 103.293H287.239V104.504H294.49V103.293ZM287.236 103.293C287.105 103.294 286.977 103.252 286.873 103.173L286.144 104.14C286.461 104.379 286.847 104.506 287.243 104.504L287.236 103.293ZM286.873 103.173C286.768 103.094 286.692 102.983 286.657 102.857L285.491 103.184C285.598 103.566 285.827 103.902 286.144 104.14L286.873 103.173ZM286.656 102.854L283.916 93.272L282.752 93.605L285.492 103.187L286.656 102.854ZM283.916 93.272C283.844 93.0188 283.691 92.7961 283.48 92.6377L282.752 93.605L282.752 93.605L283.916 93.272ZM283.48 92.6377C283.27 92.4793 283.014 92.3937 282.75 92.394L282.752 93.605L282.752 93.605L283.48 92.6377ZM282.751 92.394H281.479V93.605H282.751V92.394Z" fill="#344054"/>
<rect x="290.645" y="83.3115" width="16.4954" height="17" rx="8.24771" fill="#BB251A"/>
<path d="M299.564 88.4524V95.3115H298.625V89.5956L297.326 90.6806L296.774 90.0315L298.721 88.4524H299.564Z" fill="white"/>
<rect width="302.752" height="48.4404" transform="translate(16.8738 129.33)" fill="white"/>
<path d="M39.4792 148.707H52.3967M39.4792 153.551H52.3967M39.4792 158.395H52.3967" stroke="#004F9B" stroke-width="1.21101" stroke-linecap="round" stroke-linejoin="round"/>
<rect x="68.5435" y="135.789" width="231.706" height="35.5229" rx="6.45872" fill="#F2F4F7"/>
<path d="M85.5881 153.614C85.8335 153.653 86.0563 153.753 86.2565 153.914C86.4632 154.076 86.6247 154.276 86.7409 154.515C86.8637 154.754 86.925 155.009 86.925 155.28C86.925 155.622 86.8378 155.932 86.6634 156.21C86.489 156.481 86.2339 156.698 85.8981 156.859C85.5687 157.014 85.1779 157.092 84.7258 157.092H82.2069V150.339H84.6289C85.0875 150.339 85.4783 150.417 85.8012 150.572C86.1241 150.72 86.3663 150.924 86.5278 151.182C86.6893 151.44 86.77 151.731 86.77 152.054C86.77 152.454 86.6602 152.787 86.4406 153.052C86.2275 153.31 85.9433 153.498 85.5881 153.614ZM83.0885 153.255H84.5708C84.9842 153.255 85.3039 153.158 85.5299 152.965C85.756 152.771 85.869 152.503 85.869 152.161C85.869 151.818 85.756 151.55 85.5299 151.356C85.3039 151.163 84.9777 151.066 84.5514 151.066H83.0885V153.255ZM84.6483 156.365C85.0875 156.365 85.4298 156.262 85.6752 156.055C85.9207 155.848 86.0434 155.561 86.0434 155.193C86.0434 154.818 85.9142 154.524 85.6559 154.311C85.3975 154.092 85.052 153.982 84.6192 153.982H83.0885V156.365H84.6483ZM92.8568 151.783V157.092H91.9752V156.307C91.8073 156.578 91.5716 156.791 91.268 156.946C90.9709 157.095 90.6415 157.169 90.2798 157.169C89.8665 157.169 89.4951 157.085 89.1657 156.917C88.8363 156.743 88.5747 156.485 88.3809 156.142C88.1936 155.8 88.1 155.383 88.1 154.893V151.783H88.9719V154.776C88.9719 155.3 89.1043 155.703 89.3691 155.987C89.6339 156.265 89.9956 156.404 90.4542 156.404C90.9257 156.404 91.2971 156.259 91.5683 155.968C91.8396 155.677 91.9752 155.254 91.9752 154.699V151.783H92.8568ZM96.2249 157.179C95.818 157.179 95.4531 157.111 95.1301 156.976C94.8072 156.833 94.5521 156.64 94.3648 156.394C94.1775 156.142 94.0741 155.855 94.0548 155.532H94.9654C94.9913 155.797 95.114 156.013 95.3336 156.181C95.5596 156.349 95.8535 156.433 96.2152 156.433C96.551 156.433 96.8159 156.359 97.0096 156.21C97.2034 156.062 97.3003 155.874 97.3003 155.648C97.3003 155.416 97.1969 155.245 96.9902 155.135C96.7836 155.019 96.4639 154.906 96.0311 154.796C95.6371 154.692 95.3142 154.589 95.0623 154.486C94.8169 154.376 94.6037 154.218 94.4229 154.011C94.2485 153.798 94.1613 153.52 94.1613 153.178C94.1613 152.907 94.2421 152.658 94.4035 152.432C94.565 152.206 94.7943 152.028 95.0914 151.899C95.3885 151.763 95.7276 151.696 96.1086 151.696C96.6964 151.696 97.1711 151.844 97.5328 152.141C97.8945 152.438 98.0882 152.845 98.1141 153.362H97.2324C97.2131 153.084 97.1 152.861 96.8934 152.693C96.6931 152.525 96.4219 152.442 96.0796 152.442C95.7631 152.442 95.5112 152.509 95.3239 152.645C95.1366 152.781 95.0429 152.958 95.0429 153.178C95.0429 153.352 95.0978 153.498 95.2076 153.614C95.3239 153.724 95.466 153.814 95.6339 153.885C95.8083 153.95 96.0473 154.024 96.3508 154.108C96.7319 154.211 97.0419 154.315 97.2809 154.418C97.5199 154.515 97.7233 154.663 97.8912 154.864C98.0656 155.064 98.156 155.325 98.1625 155.648C98.1625 155.939 98.0818 156.2 97.9203 156.433C97.7588 156.666 97.5295 156.85 97.2324 156.985C96.9418 157.114 96.6059 157.179 96.2249 157.179ZM99.0776 154.428C99.0776 153.879 99.1874 153.401 99.407 152.994C99.6266 152.58 99.9302 152.261 100.318 152.035C100.712 151.809 101.161 151.696 101.664 151.696C102.317 151.696 102.853 151.854 103.273 152.17C103.699 152.487 103.98 152.926 104.115 153.488H103.166C103.076 153.165 102.898 152.91 102.633 152.722C102.375 152.535 102.052 152.442 101.664 152.442C101.161 152.442 100.754 152.616 100.444 152.965C100.134 153.307 99.9786 153.795 99.9786 154.428C99.9786 155.067 100.134 155.561 100.444 155.91C100.754 156.259 101.161 156.433 101.664 156.433C102.052 156.433 102.375 156.343 102.633 156.162C102.892 155.981 103.069 155.723 103.166 155.387H104.115C103.973 155.929 103.689 156.365 103.263 156.695C102.837 157.018 102.304 157.179 101.664 157.179C101.161 157.179 100.712 157.066 100.318 156.84C99.9302 156.614 99.6266 156.294 99.407 155.881C99.1874 155.467 99.0776 154.983 99.0776 154.428ZM104.962 154.418C104.962 153.875 105.072 153.401 105.292 152.994C105.511 152.58 105.812 152.261 106.193 152.035C106.58 151.809 107.01 151.696 107.481 151.696C107.946 151.696 108.35 151.796 108.692 151.996C109.035 152.196 109.29 152.448 109.458 152.752V151.783H110.349V157.092H109.458V156.104C109.283 156.414 109.022 156.672 108.673 156.879C108.331 157.079 107.93 157.179 107.472 157.179C107 157.179 106.574 157.063 106.193 156.83C105.812 156.598 105.511 156.272 105.292 155.852C105.072 155.432 104.962 154.954 104.962 154.418ZM109.458 154.428C109.458 154.027 109.377 153.678 109.215 153.381C109.054 153.084 108.834 152.858 108.557 152.703C108.285 152.542 107.985 152.461 107.656 152.461C107.326 152.461 107.026 152.538 106.755 152.693C106.483 152.848 106.267 153.074 106.106 153.372C105.944 153.669 105.863 154.017 105.863 154.418C105.863 154.825 105.944 155.18 106.106 155.484C106.267 155.781 106.483 156.01 106.755 156.171C107.026 156.326 107.326 156.404 107.656 156.404C107.985 156.404 108.285 156.326 108.557 156.171C108.834 156.01 109.054 155.781 109.215 155.484C109.377 155.18 109.458 154.828 109.458 154.428ZM112.72 152.645C112.875 152.341 113.095 152.106 113.379 151.938C113.67 151.77 114.022 151.686 114.435 151.686V152.597H114.203C113.215 152.597 112.72 153.133 112.72 154.205V157.092H111.839V151.783H112.72V152.645ZM118.917 152.761C119.092 152.458 119.35 152.206 119.692 152.006C120.041 151.799 120.445 151.696 120.903 151.696C121.375 151.696 121.801 151.809 122.182 152.035C122.57 152.261 122.873 152.58 123.093 152.994C123.313 153.401 123.422 153.875 123.422 154.418C123.422 154.954 123.313 155.432 123.093 155.852C122.873 156.272 122.57 156.598 122.182 156.83C121.801 157.063 121.375 157.179 120.903 157.179C120.451 157.179 120.051 157.079 119.702 156.879C119.36 156.672 119.098 156.417 118.917 156.113V159.611H118.036V151.783H118.917V152.761ZM122.521 154.418C122.521 154.017 122.441 153.669 122.279 153.372C122.118 153.074 121.898 152.848 121.62 152.693C121.349 152.538 121.049 152.461 120.719 152.461C120.396 152.461 120.096 152.542 119.818 152.703C119.547 152.858 119.328 153.087 119.16 153.391C118.998 153.688 118.917 154.034 118.917 154.428C118.917 154.828 118.998 155.18 119.16 155.484C119.328 155.781 119.547 156.01 119.818 156.171C120.096 156.326 120.396 156.404 120.719 156.404C121.049 156.404 121.349 156.326 121.62 156.171C121.898 156.01 122.118 155.781 122.279 155.484C122.441 155.18 122.521 154.825 122.521 154.418ZM126.898 157.179C126.401 157.179 125.949 157.066 125.542 156.84C125.141 156.614 124.825 156.294 124.592 155.881C124.366 155.461 124.253 154.977 124.253 154.428C124.253 153.885 124.37 153.407 124.602 152.994C124.841 152.574 125.164 152.254 125.571 152.035C125.978 151.809 126.433 151.696 126.937 151.696C127.441 151.696 127.896 151.809 128.303 152.035C128.71 152.254 129.03 152.571 129.262 152.984C129.501 153.397 129.621 153.879 129.621 154.428C129.621 154.977 129.498 155.461 129.252 155.881C129.013 156.294 128.687 156.614 128.274 156.84C127.861 157.066 127.402 157.179 126.898 157.179ZM126.898 156.404C127.215 156.404 127.512 156.33 127.79 156.181C128.067 156.033 128.29 155.81 128.458 155.513C128.632 155.216 128.72 154.854 128.72 154.428C128.72 154.001 128.636 153.64 128.468 153.343C128.3 153.045 128.08 152.826 127.809 152.684C127.538 152.535 127.244 152.461 126.927 152.461C126.604 152.461 126.307 152.535 126.036 152.684C125.771 152.826 125.558 153.045 125.397 153.343C125.235 153.64 125.154 154.001 125.154 154.428C125.154 154.86 125.232 155.225 125.387 155.522C125.548 155.819 125.761 156.042 126.026 156.191C126.291 156.333 126.582 156.404 126.898 156.404ZM131.661 152.645C131.816 152.341 132.036 152.106 132.32 151.938C132.611 151.77 132.963 151.686 133.376 151.686V152.597H133.144C132.155 152.597 131.661 153.133 131.661 154.205V157.092H130.78V151.783H131.661V152.645ZM137.858 152.761C138.033 152.458 138.291 152.206 138.633 152.006C138.982 151.799 139.386 151.696 139.844 151.696C140.316 151.696 140.742 151.809 141.123 152.035C141.511 152.261 141.814 152.58 142.034 152.994C142.253 153.401 142.363 153.875 142.363 154.418C142.363 154.954 142.253 155.432 142.034 155.852C141.814 156.272 141.511 156.598 141.123 156.83C140.742 157.063 140.316 157.179 139.844 157.179C139.392 157.179 138.992 157.079 138.643 156.879C138.301 156.672 138.039 156.417 137.858 156.113V159.611H136.977V151.783H137.858V152.761ZM141.462 154.418C141.462 154.017 141.382 153.669 141.22 153.372C141.059 153.074 140.839 152.848 140.561 152.693C140.29 152.538 139.99 152.461 139.66 152.461C139.337 152.461 139.037 152.542 138.759 152.703C138.488 152.858 138.268 153.087 138.101 153.391C137.939 153.688 137.858 154.034 137.858 154.428C137.858 154.828 137.939 155.18 138.101 155.484C138.268 155.781 138.488 156.01 138.759 156.171C139.037 156.326 139.337 156.404 139.66 156.404C139.99 156.404 140.29 156.326 140.561 156.171C140.839 156.01 141.059 155.781 141.22 155.484C141.382 155.18 141.462 154.825 141.462 154.418ZM144.405 152.645C144.56 152.341 144.78 152.106 145.064 151.938C145.355 151.77 145.707 151.686 146.12 151.686V152.597H145.888C144.899 152.597 144.405 153.133 144.405 154.205V157.092H143.524V151.783H144.405V152.645ZM149.453 157.179C148.956 157.179 148.504 157.066 148.097 156.84C147.696 156.614 147.38 156.294 147.148 155.881C146.921 155.461 146.808 154.977 146.808 154.428C146.808 153.885 146.925 153.407 147.157 152.994C147.396 152.574 147.719 152.254 148.126 152.035C148.533 151.809 148.988 151.696 149.492 151.696C149.996 151.696 150.451 151.809 150.858 152.035C151.265 152.254 151.585 152.571 151.817 152.984C152.056 153.397 152.176 153.879 152.176 154.428C152.176 154.977 152.053 155.461 151.807 155.881C151.568 156.294 151.242 156.614 150.829 156.84C150.416 157.066 149.957 157.179 149.453 157.179ZM149.453 156.404C149.77 156.404 150.067 156.33 150.345 156.181C150.622 156.033 150.845 155.81 151.013 155.513C151.187 155.216 151.275 154.854 151.275 154.428C151.275 154.001 151.191 153.64 151.023 153.343C150.855 153.045 150.635 152.826 150.364 152.684C150.093 152.535 149.799 152.461 149.482 152.461C149.159 152.461 148.862 152.535 148.591 152.684C148.326 152.826 148.113 153.045 147.952 153.343C147.79 153.64 147.709 154.001 147.709 154.428C147.709 154.86 147.787 155.225 147.942 155.522C148.103 155.819 148.317 156.042 148.581 156.191C148.846 156.333 149.137 156.404 149.453 156.404ZM153.005 154.418C153.005 153.875 153.115 153.401 153.335 152.994C153.554 152.58 153.855 152.261 154.236 152.035C154.623 151.809 155.056 151.696 155.534 151.696C155.947 151.696 156.332 151.792 156.687 151.986C157.042 152.173 157.313 152.422 157.501 152.732V149.923H158.392V157.092H157.501V156.094C157.326 156.41 157.068 156.672 156.726 156.879C156.383 157.079 155.983 157.179 155.524 157.179C155.053 157.179 154.623 157.063 154.236 156.83C153.855 156.598 153.554 156.272 153.335 155.852C153.115 155.432 153.005 154.954 153.005 154.418ZM157.501 154.428C157.501 154.027 157.42 153.678 157.258 153.381C157.097 153.084 156.877 152.858 156.6 152.703C156.328 152.542 156.028 152.461 155.699 152.461C155.369 152.461 155.069 152.538 154.798 152.693C154.526 152.848 154.31 153.074 154.149 153.372C153.987 153.669 153.906 154.017 153.906 154.418C153.906 154.825 153.987 155.18 154.149 155.484C154.31 155.781 154.526 156.01 154.798 156.171C155.069 156.326 155.369 156.404 155.699 156.404C156.028 156.404 156.328 156.326 156.6 156.171C156.877 156.01 157.097 155.781 157.258 155.484C157.42 155.18 157.501 154.828 157.501 154.428ZM164.59 151.783V157.092H163.709V156.307C163.541 156.578 163.305 156.791 163.001 156.946C162.704 157.095 162.375 157.169 162.013 157.169C161.6 157.169 161.228 157.085 160.899 156.917C160.57 156.743 160.308 156.485 160.114 156.142C159.927 155.8 159.833 155.383 159.833 154.893V151.783H160.705V154.776C160.705 155.3 160.838 155.703 161.102 155.987C161.367 156.265 161.729 156.404 162.188 156.404C162.659 156.404 163.03 156.259 163.302 155.968C163.573 155.677 163.709 155.254 163.709 154.699V151.783H164.59ZM165.749 154.428C165.749 153.879 165.859 153.401 166.079 152.994C166.298 152.58 166.602 152.261 166.989 152.035C167.383 151.809 167.832 151.696 168.336 151.696C168.988 151.696 169.524 151.854 169.944 152.17C170.371 152.487 170.652 152.926 170.787 153.488H169.838C169.747 153.165 169.57 152.91 169.305 152.722C169.047 152.535 168.724 152.442 168.336 152.442C167.832 152.442 167.425 152.616 167.115 152.965C166.805 153.307 166.65 153.795 166.65 154.428C166.65 155.067 166.805 155.561 167.115 155.91C167.425 156.259 167.832 156.433 168.336 156.433C168.724 156.433 169.047 156.343 169.305 156.162C169.563 155.981 169.741 155.723 169.838 155.387H170.787C170.645 155.929 170.361 156.365 169.935 156.695C169.508 157.018 168.975 157.179 168.336 157.179C167.832 157.179 167.383 157.066 166.989 156.84C166.602 156.614 166.298 156.294 166.079 155.881C165.859 155.467 165.749 154.983 165.749 154.428ZM173.039 152.509V155.639C173.039 155.897 173.094 156.081 173.204 156.191C173.313 156.294 173.504 156.346 173.775 156.346H174.424V157.092H173.63C173.139 157.092 172.771 156.979 172.525 156.753C172.28 156.527 172.157 156.155 172.157 155.639V152.509H171.469V151.783H172.157V150.446H173.039V151.783H174.424V152.509H173.039ZM177.808 157.179C177.311 157.179 176.858 157.066 176.452 156.84C176.051 156.614 175.735 156.294 175.502 155.881C175.276 155.461 175.163 154.977 175.163 154.428C175.163 153.885 175.279 153.407 175.512 152.994C175.751 152.574 176.074 152.254 176.481 152.035C176.888 151.809 177.343 151.696 177.847 151.696C178.35 151.696 178.806 151.809 179.213 152.035C179.62 152.254 179.939 152.571 180.172 152.984C180.411 153.397 180.53 153.879 180.53 154.428C180.53 154.977 180.408 155.461 180.162 155.881C179.923 156.294 179.597 156.614 179.184 156.84C178.77 157.066 178.312 157.179 177.808 157.179ZM177.808 156.404C178.124 156.404 178.421 156.33 178.699 156.181C178.977 156.033 179.2 155.81 179.368 155.513C179.542 155.216 179.629 154.854 179.629 154.428C179.629 154.001 179.545 153.64 179.377 153.343C179.209 153.045 178.99 152.826 178.719 152.684C178.447 152.535 178.153 152.461 177.837 152.461C177.514 152.461 177.217 152.535 176.946 152.684C176.681 152.826 176.468 153.045 176.306 153.343C176.145 153.64 176.064 154.001 176.064 154.428C176.064 154.86 176.142 155.225 176.297 155.522C176.458 155.819 176.671 156.042 176.936 156.191C177.201 156.333 177.491 156.404 177.808 156.404ZM183.569 157.179C183.162 157.179 182.797 157.111 182.474 156.976C182.151 156.833 181.896 156.64 181.709 156.394C181.521 156.142 181.418 155.855 181.399 155.532H182.309C182.335 155.797 182.458 156.013 182.678 156.181C182.904 156.349 183.198 156.433 183.559 156.433C183.895 156.433 184.16 156.359 184.354 156.21C184.547 156.062 184.644 155.874 184.644 155.648C184.644 155.416 184.541 155.245 184.334 155.135C184.128 155.019 183.808 154.906 183.375 154.796C182.981 154.692 182.658 154.589 182.406 154.486C182.161 154.376 181.948 154.218 181.767 154.011C181.593 153.798 181.505 153.52 181.505 153.178C181.505 152.907 181.586 152.658 181.748 152.432C181.909 152.206 182.138 152.028 182.435 151.899C182.733 151.763 183.072 151.696 183.453 151.696C184.04 151.696 184.515 151.844 184.877 152.141C185.238 152.438 185.432 152.845 185.458 153.362H184.576C184.557 153.084 184.444 152.861 184.237 152.693C184.037 152.525 183.766 152.442 183.424 152.442C183.107 152.442 182.855 152.509 182.668 152.645C182.481 152.781 182.387 152.958 182.387 153.178C182.387 153.352 182.442 153.498 182.552 153.614C182.668 153.724 182.81 153.814 182.978 153.885C183.152 153.95 183.391 154.024 183.695 154.108C184.076 154.211 184.386 154.315 184.625 154.418C184.864 154.515 185.067 154.663 185.235 154.864C185.41 155.064 185.5 155.325 185.507 155.648C185.507 155.939 185.426 156.2 185.264 156.433C185.103 156.666 184.874 156.85 184.576 156.985C184.286 157.114 183.95 157.179 183.569 157.179ZM187.662 155.871L186.577 158.477H185.986L186.693 155.871H187.662ZM197.639 151.686C198.052 151.686 198.42 151.773 198.743 151.947C199.066 152.115 199.321 152.37 199.509 152.713C199.696 153.055 199.79 153.472 199.79 153.963V157.092H198.918V154.088C198.918 153.559 198.785 153.155 198.521 152.877C198.262 152.593 197.91 152.451 197.465 152.451C197.006 152.451 196.641 152.6 196.37 152.897C196.099 153.188 195.963 153.611 195.963 154.166V157.092H195.091V154.088C195.091 153.559 194.959 153.155 194.694 152.877C194.435 152.593 194.083 152.451 193.638 152.451C193.179 152.451 192.814 152.6 192.543 152.897C192.272 153.188 192.136 153.611 192.136 154.166V157.092H191.255V151.783H192.136V152.548C192.311 152.27 192.543 152.057 192.834 151.909C193.131 151.76 193.457 151.686 193.812 151.686C194.258 151.686 194.652 151.786 194.994 151.986C195.336 152.186 195.592 152.48 195.759 152.868C195.908 152.493 196.153 152.203 196.496 151.996C196.838 151.789 197.219 151.686 197.639 151.686ZM200.906 154.418C200.906 153.875 201.016 153.401 201.236 152.994C201.455 152.58 201.756 152.261 202.137 152.035C202.524 151.809 202.954 151.696 203.425 151.696C203.89 151.696 204.294 151.796 204.636 151.996C204.979 152.196 205.234 152.448 205.402 152.752V151.783H206.293V157.092H205.402V156.104C205.227 156.414 204.966 156.672 204.617 156.879C204.275 157.079 203.874 157.179 203.416 157.179C202.944 157.179 202.518 157.063 202.137 156.83C201.756 156.598 201.455 156.272 201.236 155.852C201.016 155.432 200.906 154.954 200.906 154.418ZM205.402 154.428C205.402 154.027 205.321 153.678 205.16 153.381C204.998 153.084 204.778 152.858 204.501 152.703C204.229 152.542 203.929 152.461 203.6 152.461C203.27 152.461 202.97 152.538 202.699 152.693C202.428 152.848 202.211 153.074 202.05 153.372C201.888 153.669 201.807 154.017 201.807 154.418C201.807 154.825 201.888 155.18 202.05 155.484C202.211 155.781 202.428 156.01 202.699 156.171C202.97 156.326 203.27 156.404 203.6 156.404C203.929 156.404 204.229 156.326 204.501 156.171C204.778 156.01 204.998 155.781 205.16 155.484C205.321 155.18 205.402 154.828 205.402 154.428ZM208.665 152.645C208.82 152.341 209.039 152.106 209.323 151.938C209.614 151.77 209.966 151.686 210.379 151.686V152.597H210.147C209.159 152.597 208.665 153.133 208.665 154.205V157.092H207.783V151.783H208.665V152.645ZM211.068 154.428C211.068 153.879 211.177 153.401 211.397 152.994C211.617 152.58 211.92 152.261 212.308 152.035C212.702 151.809 213.151 151.696 213.654 151.696C214.307 151.696 214.843 151.854 215.263 152.17C215.689 152.487 215.97 152.926 216.105 153.488H215.156C215.066 153.165 214.888 152.91 214.623 152.722C214.365 152.535 214.042 152.442 213.654 152.442C213.151 152.442 212.744 152.616 212.434 152.965C212.124 153.307 211.969 153.795 211.969 154.428C211.969 155.067 212.124 155.561 212.434 155.91C212.744 156.259 213.151 156.433 213.654 156.433C214.042 156.433 214.365 156.343 214.623 156.162C214.881 155.981 215.059 155.723 215.156 155.387H216.105C215.963 155.929 215.679 156.365 215.253 156.695C214.827 157.018 214.294 157.179 213.654 157.179C213.151 157.179 212.702 157.066 212.308 156.84C211.92 156.614 211.617 156.294 211.397 155.881C211.177 155.467 211.068 154.983 211.068 154.428ZM216.952 154.418C216.952 153.875 217.062 153.401 217.282 152.994C217.501 152.58 217.802 152.261 218.183 152.035C218.57 151.809 219 151.696 219.471 151.696C219.936 151.696 220.34 151.796 220.682 151.996C221.025 152.196 221.28 152.448 221.448 152.752V151.783H222.339V157.092H221.448V156.104C221.273 156.414 221.012 156.672 220.663 156.879C220.321 157.079 219.92 157.179 219.462 157.179C218.99 157.179 218.564 157.063 218.183 156.83C217.802 156.598 217.501 156.272 217.282 155.852C217.062 155.432 216.952 154.954 216.952 154.418ZM221.448 154.428C221.448 154.027 221.367 153.678 221.205 153.381C221.044 153.084 220.824 152.858 220.547 152.703C220.275 152.542 219.975 152.461 219.646 152.461C219.316 152.461 219.016 152.538 218.745 152.693C218.473 152.848 218.257 153.074 218.096 153.372C217.934 153.669 217.853 154.017 217.853 154.418C217.853 154.825 217.934 155.18 218.096 155.484C218.257 155.781 218.473 156.01 218.745 156.171C219.016 156.326 219.316 156.404 219.646 156.404C219.975 156.404 220.275 156.326 220.547 156.171C220.824 156.01 221.044 155.781 221.205 155.484C221.367 155.18 221.448 154.828 221.448 154.428ZM225.708 157.179C225.301 157.179 224.936 157.111 224.613 156.976C224.291 156.833 224.035 156.64 223.848 156.394C223.661 156.142 223.557 155.855 223.538 155.532H224.449C224.475 155.797 224.597 156.013 224.817 156.181C225.043 156.349 225.337 156.433 225.699 156.433C226.034 156.433 226.299 156.359 226.493 156.21C226.687 156.062 226.784 155.874 226.784 155.648C226.784 155.416 226.68 155.245 226.474 155.135C226.267 155.019 225.947 154.906 225.514 154.796C225.121 154.692 224.798 154.589 224.546 154.486C224.3 154.376 224.087 154.218 223.906 154.011C223.732 153.798 223.645 153.52 223.645 153.178C223.645 152.907 223.725 152.658 223.887 152.432C224.048 152.206 224.278 152.028 224.575 151.899C224.872 151.763 225.211 151.696 225.592 151.696C226.18 151.696 226.654 151.844 227.016 152.141C227.378 152.438 227.572 152.845 227.597 153.362H226.716C226.696 153.084 226.583 152.861 226.377 152.693C226.177 152.525 225.905 152.442 225.563 152.442C225.246 152.442 224.995 152.509 224.807 152.645C224.62 152.781 224.526 152.958 224.526 153.178C224.526 153.352 224.581 153.498 224.691 153.614C224.807 153.724 224.949 153.814 225.117 153.885C225.292 153.95 225.531 154.024 225.834 154.108C226.215 154.211 226.525 154.315 226.764 154.418C227.003 154.515 227.207 154.663 227.375 154.864C227.549 155.064 227.639 155.325 227.646 155.648C227.646 155.939 227.565 156.2 227.404 156.433C227.242 156.666 227.013 156.85 226.716 156.985C226.425 157.114 226.089 157.179 225.708 157.179ZM236.046 151.783L232.849 159.591H231.938L232.985 157.034L230.844 151.783H231.822L233.488 156.084L235.135 151.783H236.046ZM245.9 151.686C246.313 151.686 246.681 151.773 247.004 151.947C247.327 152.115 247.582 152.37 247.769 152.713C247.957 153.055 248.05 153.472 248.05 153.963V157.092H247.178V154.088C247.178 153.559 247.046 153.155 246.781 152.877C246.523 152.593 246.171 152.451 245.725 152.451C245.267 152.451 244.902 152.6 244.63 152.897C244.359 153.188 244.224 153.611 244.224 154.166V157.092H243.352V154.088C243.352 153.559 243.219 153.155 242.954 152.877C242.696 152.593 242.344 152.451 241.898 152.451C241.44 152.451 241.075 152.6 240.804 152.897C240.532 153.188 240.397 153.611 240.397 154.166V157.092H239.515V151.783H240.397V152.548C240.571 152.27 240.804 152.057 241.094 151.909C241.391 151.76 241.718 151.686 242.073 151.686C242.518 151.686 242.912 151.786 243.255 151.986C243.597 152.186 243.852 152.48 244.02 152.868C244.169 152.493 244.414 152.203 244.756 151.996C245.099 151.789 245.48 151.686 245.9 151.686ZM251.589 157.15C251.421 157.15 251.279 157.092 251.163 156.976C251.047 156.859 250.988 156.717 250.988 156.549C250.988 156.381 251.047 156.239 251.163 156.123C251.279 156.007 251.421 155.949 251.589 155.949C251.751 155.949 251.886 156.007 251.996 156.123C252.112 156.239 252.17 156.381 252.17 156.549C252.17 156.717 252.112 156.859 251.996 156.976C251.886 157.092 251.751 157.15 251.589 157.15ZM253.41 157.15C253.243 157.15 253.1 157.092 252.984 156.976C252.868 156.859 252.81 156.717 252.81 156.549C252.81 156.381 252.868 156.239 252.984 156.123C253.1 156.007 253.243 155.949 253.41 155.949C253.572 155.949 253.708 156.007 253.817 156.123C253.934 156.239 253.992 156.381 253.992 156.549C253.992 156.717 253.934 156.859 253.817 156.976C253.708 157.092 253.572 157.15 253.41 157.15ZM249.777 157.15C249.61 157.15 249.467 157.092 249.351 156.976C249.235 156.859 249.177 156.717 249.177 156.549C249.177 156.381 249.235 156.239 249.351 156.123C249.467 156.007 249.61 155.949 249.777 155.949C249.939 155.949 250.075 156.007 250.184 156.123C250.301 156.239 250.359 156.381 250.359 156.549C250.359 156.717 250.301 156.859 250.184 156.976C250.075 157.092 249.939 157.15 249.777 157.15Z" fill="#98A2B3"/>
<path d="M281.232 157.138L284.911 160.816M283.094 152.642C283.094 156.153 280.248 159 276.736 159C273.225 159 270.378 156.153 270.378 152.642C270.378 149.131 273.225 146.284 276.736 146.284C280.248 146.284 283.094 149.131 283.094 152.642Z" stroke="#101828" stroke-width="1.21101" stroke-linecap="round" stroke-linejoin="round"/>
<g clip-path="url(#clip2_4998_40998)">
<rect x="-12.1917" y="190.689" width="35.5229" height="140.477" rx="6.45872" fill="#D9D9D9"/>
<rect x="29.79" y="190.688" width="276.92" height="140.48" rx="8" fill="#F2F4F7"/>
<path d="M133.214 272.765C132.137 273.842 132.137 275.587 133.214 276.664C134.291 277.741 136.036 277.741 137.113 276.664L133.214 272.765ZM152.499 257.379L154.449 259.328C154.454 259.323 154.459 259.318 154.464 259.313L152.499 257.379ZM156.428 257.379L154.464 259.313C154.469 259.318 154.474 259.323 154.479 259.328L156.428 257.379ZM171.8 272.75L173.764 270.815C173.759 270.81 173.755 270.805 173.75 270.8L171.8 272.75ZM175.729 272.75L173.779 270.8C173.774 270.805 173.769 270.81 173.764 270.815L175.729 272.75ZM182.829 265.65L184.778 267.6C184.783 267.595 184.788 267.59 184.793 267.585L182.829 265.65ZM186.758 265.65L184.793 267.585C184.798 267.59 184.803 267.595 184.808 267.6L186.758 265.65ZM199.387 282.179C200.464 283.255 202.209 283.255 203.286 282.179C204.363 281.102 204.363 279.356 203.286 278.279L199.387 282.179ZM177.9 249.9V247.142H177.9L177.9 249.9ZM177.036 250.204L175.307 248.056L177.036 250.204ZM177.9 251.278L175.752 253.006L176.579 254.035H177.9V251.278ZM137.921 236.114H198.579V230.599H137.921V236.114ZM198.579 236.114H204.094C204.094 233.068 201.625 230.599 198.579 230.599V236.114ZM198.579 236.114V285.743H204.094V236.114H198.579ZM198.579 285.743V291.258C201.625 291.258 204.094 288.789 204.094 285.743H198.579ZM198.579 285.743H137.921V291.258H198.579V285.743ZM137.921 285.743H132.406C132.406 288.789 134.875 291.258 137.921 291.258V285.743ZM137.921 285.743V236.114H132.406V285.743H137.921ZM137.921 236.114V230.599C134.875 230.599 132.406 233.068 132.406 236.114H137.921ZM137.113 276.664L154.449 259.328L150.55 255.429L133.214 272.765L137.113 276.664ZM154.464 259.313V259.313L152.334 254.227C151.66 254.509 151.048 254.923 150.535 255.444L154.464 259.313ZM154.464 259.313H154.464V253.799C153.733 253.799 153.009 253.944 152.334 254.227L154.464 259.313ZM154.464 259.313H154.464L156.594 254.227C155.919 253.944 155.195 253.799 154.464 253.799V259.313ZM154.464 259.313V259.313L158.393 255.444C157.88 254.923 157.268 254.509 156.594 254.227L154.464 259.313ZM154.479 259.328L169.85 274.7L173.75 270.8L158.378 255.429L154.479 259.328ZM169.835 274.685C170.349 275.206 170.96 275.619 171.635 275.902L173.764 270.815L169.835 274.685ZM171.635 275.902C172.309 276.184 173.033 276.33 173.764 276.33V270.815V270.815L171.635 275.902ZM173.764 276.33C174.496 276.33 175.22 276.184 175.894 275.902L173.764 270.815V270.815V276.33ZM175.894 275.902C176.569 275.619 177.18 275.206 177.693 274.685L173.764 270.815L175.894 275.902ZM177.679 274.7L184.778 267.6L180.879 263.701L173.779 270.8L177.679 274.7ZM184.793 267.585L182.663 262.498C181.989 262.781 181.377 263.194 180.864 263.716L184.793 267.585ZM184.793 267.585V267.585V262.07C184.062 262.07 183.338 262.216 182.663 262.498L184.793 267.585ZM184.793 267.585V267.585L186.923 262.498C186.248 262.216 185.524 262.07 184.793 262.07V267.585ZM184.793 267.585L188.722 263.716C188.209 263.194 187.597 262.781 186.923 262.498L184.793 267.585ZM184.808 267.6L199.387 282.179L203.286 278.279L188.707 263.701L184.808 267.6ZM177.9 249.9C178.661 249.9 179.279 250.517 179.279 251.278H173.764C173.764 253.563 175.616 255.414 177.9 255.414V249.9ZM176.522 251.278C176.522 250.517 177.139 249.9 177.9 249.9V255.414C180.184 255.414 182.036 253.562 182.036 251.278H176.522ZM177.9 252.657C177.139 252.657 176.522 252.04 176.522 251.278H182.036C182.036 248.994 180.184 247.142 177.9 247.142V252.657ZM175.95 251.849L177.329 253.228L181.228 249.329L179.85 247.95L175.95 251.849ZM177.9 247.142C176.92 247.142 176.015 247.486 175.307 248.056L178.765 252.352C178.53 252.541 178.226 252.657 177.9 252.657L177.9 247.142ZM175.307 248.056C174.371 248.81 173.764 249.974 173.764 251.278H179.279C179.279 251.714 179.073 252.104 178.765 252.352L175.307 248.056ZM174.888 251.932C175.233 252.362 175.449 252.63 175.579 252.791C175.644 252.872 175.687 252.926 175.714 252.959C175.727 252.976 175.737 252.988 175.743 252.995C175.746 252.999 175.748 253.002 175.749 253.004C175.75 253.004 175.751 253.005 175.751 253.005C175.751 253.006 175.751 253.006 175.751 253.006C175.751 253.006 175.752 253.006 175.752 253.006C175.752 253.006 175.752 253.006 175.752 253.006C175.752 253.006 175.752 253.006 175.752 253.006C175.752 253.006 175.752 253.006 177.9 251.278C180.049 249.55 180.049 249.55 180.049 249.55C180.049 249.55 180.049 249.55 180.049 249.55C180.049 249.55 180.049 249.55 180.049 249.55C180.049 249.55 180.049 249.55 180.049 249.55C180.049 249.55 180.049 249.55 180.048 249.55C180.048 249.549 180.047 249.549 180.047 249.548C180.045 249.546 180.043 249.543 180.04 249.539C180.034 249.532 180.025 249.52 180.011 249.503C179.984 249.47 179.941 249.416 179.876 249.336C179.746 249.174 179.53 248.906 179.185 248.476L174.888 251.932ZM177.9 254.035H179.279V248.521H177.9V254.035Z" fill="#667085"/>
<rect x="313.169" y="190.689" width="35.5229" height="140.477" rx="6.45872" fill="#D9D9D9"/>
</g>
<rect x="29.7913" y="350.544" width="87.8951" height="33.4804" rx="16.7402" fill="#D9D9D9"/>
<rect x="120.916" y="350.734" width="90.422" height="33.1009" rx="16.5505" fill="#D9D9D9"/>
<rect x="214.567" y="350.734" width="92.844" height="33.1009" rx="16.5505" fill="#D9D9D9"/>
<rect x="29.7913" y="403.4" width="143.706" height="14.5321" rx="7.26606" fill="#D9D9D9"/>
<rect x="259.076" y="403.4" width="47.633" height="14.5321" rx="7.26606" fill="#D9D9D9"/>
<g clip-path="url(#clip3_4998_40998)">
<rect x="29.7913" y="437.309" width="119.486" height="140.477" rx="6.45872" fill="#D9D9D9"/>
<rect x="162.195" y="437.309" width="119.486" height="140.477" rx="6.45872" fill="#D9D9D9"/>
<rect x="294.599" y="437.309" width="119.486" height="140.477" rx="6.45872" fill="#D9D9D9"/>
</g>
</g>
</g>
<defs>
<filter id="filter0_d_4998_40998" x="0.72699" y="0.963302" width="335.046" height="560.294" filterUnits="userSpaceOnUse" color-interpolation-filters="sRGB">
<feFlood flood-opacity="0" result="BackgroundImageFix"/>
<feColorMatrix in="SourceAlpha" type="matrix" values="0 0 0 0 0 0 0 0 0 0 0 0 0 0 0 0 0 0 127 0" result="hardAlpha"/>
<feOffset dy="12.1101"/>
<feGaussianBlur stdDeviation="8.07339"/>
<feColorMatrix type="matrix" values="0 0 0 0 0 0 0 0 0 0 0 0 0 0 0 0 0 0 0.04 0"/>
<feBlend mode="normal" in2="BackgroundImageFix" result="effect1_dropShadow_4998_40998"/>
<feBlend mode="normal" in="SourceGraphic" in2="effect1_dropShadow_4998_40998" result="shape"/>
</filter>
<filter id="filter1_dd_4998_40998" x="28.5306" y="86.5962" width="135.732" height="42.7781" filterUnits="userSpaceOnUse" color-interpolation-filters="sRGB">
<feFlood flood-opacity="0" result="BackgroundImageFix"/>
<feColorMatrix in="SourceAlpha" type="matrix" values="0 0 0 0 0 0 0 0 0 0 0 0 0 0 0 0 0 0 127 0" result="hardAlpha"/>
<feMorphology radius="1.28656" operator="erode" in="SourceAlpha" result="effect1_dropShadow_4998_40998"/>
<feOffset dy="2.57312"/>
<feGaussianBlur stdDeviation="1.92984"/>
<feColorMatrix type="matrix" values="0 0 0 0 0.0627451 0 0 0 0 0.0941176 0 0 0 0 0.156863 0 0 0 0.05 0"/>
<feBlend mode="normal" in2="BackgroundImageFix" result="effect1_dropShadow_4998_40998"/>
<feColorMatrix in="SourceAlpha" type="matrix" values="0 0 0 0 0 0 0 0 0 0 0 0 0 0 0 0 0 0 127 0" result="hardAlpha"/>
<feMorphology radius="2.57312" operator="erode" in="SourceAlpha" result="effect2_dropShadow_4998_40998"/>
<feOffset dy="7.71937"/>
<feGaussianBlur stdDeviation="5.14625"/>
<feColorMatrix type="matrix" values="0 0 0 0 0.0627451 0 0 0 0 0.0941176 0 0 0 0 0.156863 0 0 0 0.1 0"/>
<feBlend mode="normal" in2="effect1_dropShadow_4998_40998" result="effect2_dropShadow_4998_40998"/>
<feBlend mode="normal" in="SourceGraphic" in2="effect2_dropShadow_4998_40998" result="shape"/>
</filter>
<clipPath id="clip0_4998_40998">
<rect width="302.752" height="521.541" fill="white" transform="translate(16.8738 11.4585)"/>
</clipPath>
<clipPath id="clip1_4998_40998">
<rect width="120.294" height="27.3394" fill="white" transform="translate(36.25 86.5962)"/>
</clipPath>
<clipPath id="clip2_4998_40998">
<rect width="302.752" height="140.48" fill="white" transform="translate(16.8738 190.688)"/>
</clipPath>
<clipPath id="clip3_4998_40998">
<rect width="302.752" height="140.477" fill="white" transform="translate(16.8738 437.309)"/>
</clipPath>
</defs>
</svg>
