<svg width="19" height="20" viewBox="0 0 19 20" fill="none" xmlns="http://www.w3.org/2000/svg">
<path id="Vector" d="M17.75 4.25H1.25M7.25 8.75V14.75M11.75 8.75V14.75M16.25 4.25V18.5C16.25 18.6989 16.171 18.8897 16.0303 19.0303C15.8897 19.171 15.6989 19.25 15.5 19.25H3.5C3.30109 19.25 3.11032 19.171 2.96967 19.0303C2.82902 18.8897 2.75 18.6989 2.75 18.5V4.25M13.25 4.25V2.75C13.25 2.35218 13.092 1.97064 12.8107 1.68934C12.5294 1.40804 12.1478 1.25 11.75 1.25H7.25C6.85218 1.25 6.47064 1.40804 6.18934 1.68934C5.90804 1.97064 5.75 2.35218 5.75 2.75V4.25" stroke="#101828" stroke-width="1.5" stroke-linecap="round" stroke-linejoin="round"/>
</svg>
