<svg width="16" height="17" viewBox="0 0 16 17" fill="none" xmlns="http://www.w3.org/2000/svg">
<g id="Icon-DotsThreeCircleVertical">
<g id="Vector">
<path d="M8 9.25C8.41421 9.25 8.75 8.91421 8.75 8.5C8.75 8.08579 8.41421 7.75 8 7.75C7.58579 7.75 7.25 8.08579 7.25 8.5C7.25 8.91421 7.58579 9.25 8 9.25Z" fill="#101828"/>
<path d="M8 6.25C8.41421 6.25 8.75 5.91421 8.75 5.5C8.75 5.08579 8.41421 4.75 8 4.75C7.58579 4.75 7.25 5.08579 7.25 5.5C7.25 5.91421 7.58579 6.25 8 6.25Z" fill="#101828"/>
<path d="M8 12.25C8.41421 12.25 8.75 11.9142 8.75 11.5C8.75 11.0858 8.41421 10.75 8 10.75C7.58579 10.75 7.25 11.0858 7.25 11.5C7.25 11.9142 7.58579 12.25 8 12.25Z" fill="#101828"/>
</g>
</g>
</svg>
