<svg width="161" height="32" viewBox="0 0 161 32" fill="none" xmlns="http://www.w3.org/2000/svg">
<g id="Capa_1" clip-path="url(#clip0_4587_208472)">
<path id="Vector" fill-rule="evenodd" clip-rule="evenodd" d="M28.3745 0H0V31.8327H56.7491V0H28.378H28.3745ZM53.8903 17.1017H13.6231C14.8271 21.5434 20.9266 24.9617 28.3745 25.165C28.605 25.1719 28.8458 25.1753 29.0798 25.1753C34.9005 25.1753 39.9782 23.2146 42.6822 20.3064H52.552C49.0603 25.4889 39.5516 29.2104 28.3745 29.2104C14.2285 29.2104 2.75558 23.256 2.75558 15.9129C2.75558 8.56981 14.232 2.61884 28.3745 2.61884C42.5171 2.61884 53.99 8.57326 53.99 15.9163C53.99 16.3161 53.9556 16.7089 53.8868 17.1017" fill="#004F9B"/>
<path id="Vector_2" fill-rule="evenodd" clip-rule="evenodd" d="M29.0832 5.82373C28.8493 5.82373 28.6085 5.82718 28.378 5.83407C21.3291 6.03048 15.4911 9.09728 13.8605 13.1909H44.3129C42.6306 8.96289 36.4521 5.82718 29.0832 5.82718" fill="#004F9B"/>
<path id="Vector_3" fill-rule="evenodd" clip-rule="evenodd" d="M68.5457 19.7413C68.4735 23.3284 67.9781 26.2195 69.275 27.6185C70.3518 28.7763 72.2508 28.4869 75.2919 27.8218C75.113 28.859 74.9307 29.9479 74.7483 30.9817C70.6167 31.5295 67.1834 31.7845 64.9232 31.0988C63.1068 30.5509 62.1057 29.145 61.9819 27.0465V19.731H57.9844L68.8484 11.7607V16.5815H77.2115V19.6896C74.9857 19.7034 70.7784 19.7172 68.5457 19.7413Z" fill="#004F9B"/>
<path id="Vector_4" fill-rule="evenodd" clip-rule="evenodd" d="M82.485 9.05615C84.4666 9.05615 86.0697 10.1485 86.0697 11.4924C86.0697 12.8362 84.4666 13.9251 82.485 13.9251C80.5035 13.9251 78.9038 12.8362 78.9038 11.4924C78.9038 10.1485 80.5104 9.05615 82.485 9.05615Z" fill="#004F9B"/>
<path id="Vector_5" fill-rule="evenodd" clip-rule="evenodd" d="M79.1448 16.3403C79.7846 21.4092 79.4785 26.4711 79.1448 31.5434H86.3107C85.6983 26.5125 85.4713 21.4815 86.3107 16.4506C83.9163 16.4127 81.5323 16.3748 79.1448 16.3403Z" fill="#004F9B"/>
<path id="Vector_6" fill-rule="evenodd" clip-rule="evenodd" d="M112.408 27.7529C112.046 28.8383 111.696 29.9203 111.334 31.0023C104.382 31.7466 99.1595 31.5123 95.6746 30.3063C92.1829 29.1037 90.3424 26.9225 90.3114 23.773C90.6417 21.2471 92.0418 19.4656 94.2126 18.3113C97.8282 16.392 103.811 16.23 111.503 17.3327C111.558 18.3733 111.61 19.414 111.668 20.4546C107.763 19.5828 104.437 19.2003 102.001 19.5725C99.2421 19.9963 97.3053 21.3988 97.3225 24.1727C97.467 26.1816 98.9772 27.3911 100.907 28.0079C103.563 28.8452 107.633 28.573 112.411 27.7529" fill="#004F9B"/>
<path id="Vector_7" fill-rule="evenodd" clip-rule="evenodd" d="M127.624 16.5401C137.16 16.8743 141.305 18.9453 141.388 24.1382C141.467 29.3035 136.644 31.5123 127.586 31.5364V28.6832C131.294 28.6832 134.305 26.664 134.305 24.1726C134.305 21.6813 131.291 19.6586 127.586 19.6586V16.5366H127.627L127.624 16.5401ZM127.583 31.5364H127.462C118.325 31.5364 113.619 28.4007 113.698 24.1382C113.777 19.8826 118.07 16.2162 127.583 16.5366V19.6586C123.871 19.6586 120.86 21.6778 120.86 24.1726C120.86 26.6674 123.871 28.6832 127.583 28.6832V31.5364Z" fill="#004F9B"/>
<path id="Vector_8" fill-rule="evenodd" clip-rule="evenodd" d="M142.716 27.5875C142.901 28.704 143.091 29.8135 143.28 30.9231C147.58 31.626 151.612 32.0637 154.839 31.695C158.337 31.2952 163.291 28.9865 159.824 25.7233C158.458 24.4414 155.974 23.3457 152.613 22.4084C150.177 21.3884 149.992 20.396 150.821 19.8619C151.798 19.2313 154.705 19.3037 159.349 20.3443C159.28 19.3726 159.208 18.7179 159.146 17.7496C157.016 17.374 154.883 17.0605 152.892 16.8709C150.067 16.6022 147.405 16.609 144.811 17.7186C143.782 18.1597 143.159 18.6662 142.956 19.2141C142.519 20.3788 142.468 21.9156 146.135 23.5042C149.692 25.4924 154.299 26.3677 154.422 27.4841C154.484 28.0734 153.642 28.7867 151.185 29.0382C147.958 29.1795 145.261 28.5007 142.716 27.5875Z" fill="#004F9B"/>
</g>
<defs>
<clipPath id="clip0_4587_208472">
<rect width="161" height="31.8327" fill="white"/>
</clipPath>
</defs>
</svg>
