<svg width="24" height="25" viewBox="0 0 24 25" fill="none" xmlns="http://www.w3.org/2000/svg">
<g id="Icon-HandSoap">
<path id="Vector" d="M7.5 10.5825H16.5M7.5 10.5825C6.70435 10.5825 5.94129 10.8986 5.37868 11.4612C4.81607 12.0238 4.5 12.7869 4.5 13.5825V21.0825C4.5 21.2814 4.57902 21.4722 4.71967 21.6129C4.86032 21.7535 5.05109 21.8325 5.25 21.8325H18.75C18.9489 21.8325 19.1397 21.7535 19.2803 21.6129C19.421 21.4722 19.5 21.2814 19.5 21.0825V13.5825C19.5 12.7869 19.1839 12.0238 18.6213 11.4612C18.0587 10.8986 17.2956 10.5825 16.5 10.5825M7.5 10.5825L7.50002 9.08252C7.49878 8.7867 7.55613 8.49356 7.66876 8.22002C7.7814 7.94648 7.94708 7.69795 8.15626 7.48877C8.36544 7.27959 8.61397 7.1139 8.88752 7.00127C9.16106 6.88863 9.4542 6.83128 9.75002 6.83252H14.25C14.5458 6.83128 14.839 6.88863 15.1125 7.00127C15.3861 7.1139 15.6346 7.27959 15.8438 7.48877C16.053 7.69795 16.2186 7.94648 16.3313 8.22002C16.4439 8.49356 16.5013 8.7867 16.5 9.08252L16.5 10.5825M17.25 4.58252C17.25 4.18469 17.092 3.80316 16.8107 3.52186C16.5294 3.24055 16.1478 3.08252 15.75 3.08252H9.75M12 3.08252V6.83252" stroke="#344054" stroke-width="1.5" stroke-linecap="round" stroke-linejoin="round"/>
</g>
</svg>
