<svg width="24" height="24" viewBox="0 0 24 24" fill="none" xmlns="http://www.w3.org/2000/svg">
<g id="Icon-Gear">
<g id="Vector">
<path d="M12.0005 16.5C14.4858 16.5 16.5005 14.4853 16.5005 12C16.5005 9.51472 14.4858 7.5 12.0005 7.5C9.51521 7.5 7.50049 9.51472 7.50049 12C7.50049 14.4853 9.51521 16.5 12.0005 16.5Z" stroke="#344054" stroke-width="1.5" stroke-linecap="round" stroke-linejoin="round"/>
<path d="M17.2223 6.10303C17.4598 6.32178 17.6848 6.54678 17.8973 6.77803L20.4566 7.14365C20.8737 7.86788 21.1951 8.64308 21.4129 9.4499L19.8566 11.5218C19.8566 11.5218 19.8848 12.1593 19.8566 12.478L21.4129 14.5499C21.1961 15.3571 20.8746 16.1324 20.4566 16.8562L17.8973 17.2218C17.8973 17.2218 17.4566 17.6812 17.2223 17.8968L16.8566 20.4562C16.1324 20.8732 15.3572 21.1946 14.5504 21.4124L12.4785 19.8562C12.1604 19.8843 11.8404 19.8843 11.5223 19.8562L9.45039 21.4124C8.64322 21.1956 7.86789 20.8741 7.14414 20.4562L6.77852 17.8968C6.54727 17.678 6.32227 17.453 6.10352 17.2218L3.54414 16.8562C3.12712 16.1319 2.8057 15.3567 2.58789 14.5499L4.14414 12.478C4.14414 12.478 4.11602 11.8405 4.14414 11.5218L2.58789 9.4499C2.80469 8.64274 3.12617 7.8674 3.54414 7.14365L6.10352 6.77803C6.32227 6.54678 6.54727 6.32178 6.77852 6.10303L7.14414 3.54365C7.86836 3.12664 8.64357 2.80521 9.45039 2.5874L11.5223 4.14365C11.8404 4.11552 12.1604 4.11552 12.4785 4.14365L14.5504 2.5874C15.3576 2.8042 16.1329 3.12568 16.8566 3.54365L17.2223 6.10303Z" stroke="#344054" stroke-width="1.5" stroke-linecap="round" stroke-linejoin="round"/>
</g>
</g>
</svg>
