<svg width="124" height="30" viewBox="0 0 124 30" fill="none" xmlns="http://www.w3.org/2000/svg">
<g id="Isolation_Mode" clip-path="url(#clip0_5939_23432)">
<path id="Vector" d="M57.0466 23.416L59.4138 25.7728C63.3014 29.6465 69.6222 29.6396 73.5029 25.7589C75.3876 23.8742 76.422 21.3715 76.422 18.7092C76.422 16.0469 75.3842 13.5408 73.5029 11.6595C69.6222 7.77887 63.3014 7.77192 59.4138 11.6456L48.9729 22.0484C47.1332 23.8811 44.1447 23.8776 42.3085 22.0414C40.4688 20.2018 40.4688 17.2097 42.3085 15.3735C43.2283 14.4537 44.4362 13.9955 45.6442 13.9955C46.8521 13.9955 48.0531 14.4537 48.9729 15.3666L51.3263 17.7026L55.0542 13.9955L52.68 11.6422C48.7924 7.76845 42.4716 7.77539 38.591 11.656C34.7034 15.5436 34.7034 21.8679 38.591 25.7589C40.5348 27.7027 43.086 28.6746 45.6407 28.6746C48.1954 28.6746 50.7362 27.7062 52.68 25.7728L63.1209 15.3701C64.9606 13.5373 67.9492 13.5408 69.7854 15.377C70.6774 16.2691 71.1668 17.4527 71.1668 18.7127C71.1668 19.9727 70.6774 21.1563 69.7854 22.0484C67.9492 23.8846 64.9606 23.8846 63.1209 22.0553L60.7676 19.7158L57.0431 23.4229L57.0466 23.416Z" fill="#0062FF"/>
<g id="Group">
<path id="Vector_2" d="M0 28.6816V8.60498H4.22428L4.62345 11.3541C5.26212 10.344 6.10212 9.55605 7.15385 8.98333C8.20211 8.41407 9.40309 8.12598 10.7603 8.12598C11.7704 8.12598 12.6798 8.25788 13.4885 8.52515C14.2973 8.79242 15.0158 9.18812 15.6406 9.71919C16.2654 10.2503 16.7756 10.9132 17.1748 11.7116C17.9176 10.5974 18.886 9.71919 20.0835 9.08399C21.2776 8.44531 22.5792 8.12945 23.9885 8.12945C25.6615 8.12945 27.0812 8.46961 28.2509 9.14647C29.4207 9.82332 30.3093 10.8195 30.9202 12.135C31.5311 13.4506 31.8365 15.0646 31.8365 16.9737V28.685H27.0951V17.4527C27.0951 15.7519 26.748 14.4502 26.0607 13.5478C25.3699 12.6453 24.3495 12.1941 22.9923 12.1941C22.062 12.1941 21.2463 12.4197 20.5417 12.8709C19.8371 13.3221 19.2852 13.9816 18.8895 14.8425C18.4903 15.7068 18.2925 16.762 18.2925 18.0081V28.685H13.551V17.4527C13.551 15.7519 13.2039 14.4502 12.5166 13.5478C11.8259 12.6453 10.7915 12.1941 9.41003 12.1941C8.53533 12.1941 7.74393 12.4197 7.0393 12.8709C6.33468 13.3221 5.78278 13.9816 5.38708 14.8425C4.98791 15.7068 4.79006 16.762 4.79006 18.0081V28.685H0V28.6816Z" fill="#0C9AE8"/>
<g id="Group_2">
<path id="Vector_3" d="M91.9728 29.1603C90.9107 29.1603 89.9527 29.0215 89.1057 28.7403C88.2553 28.4627 87.5125 28.0774 86.8738 27.5845C86.2352 27.0916 85.7041 26.5293 85.2806 25.8906L84.7634 28.6779H80.501V0H85.2806V11.5517C85.9193 10.5694 86.7801 9.75367 87.87 9.10111C88.9599 8.45202 90.3136 8.12574 91.9346 8.12574C93.8194 8.12574 95.4855 8.58392 96.933 9.50028C98.3804 10.4166 99.5224 11.6662 100.359 13.2456C101.195 14.8249 101.615 16.6402 101.615 18.6847C101.615 20.7291 101.202 22.4681 100.38 24.0614C99.5571 25.6546 98.422 26.9042 96.9746 27.8066C95.5272 28.7091 93.8611 29.1603 91.9763 29.1603H91.9728ZM90.9766 25.0159C92.0908 25.0159 93.087 24.7452 93.9652 24.2002C94.8399 23.6552 95.5237 22.9124 96.0166 21.9683C96.5095 21.0277 96.7525 19.9169 96.7525 18.643C96.7525 17.3692 96.506 16.2931 96.0166 15.3351C95.5237 14.3806 94.8399 13.6343 93.9652 13.1032C93.087 12.5722 92.0943 12.3084 90.9766 12.3084C89.8589 12.3084 88.8315 12.5756 87.9672 13.1032C87.1029 13.6343 86.4261 14.3771 85.9367 15.3351C85.4438 16.2897 85.2008 17.3935 85.2008 18.643C85.2008 19.8926 85.4472 21.0277 85.9367 21.9683C86.4295 22.9124 87.1064 23.6552 87.9672 24.2002C88.8315 24.7452 89.8312 25.0159 90.9766 25.0159Z" fill="#0C9AE8"/>
<path id="Vector_4" d="M112.927 29.1601C111.282 29.1601 109.915 28.8825 108.825 28.3236C107.735 27.7648 106.926 27.022 106.395 26.0917C105.864 25.1615 105.6 24.1549 105.6 23.065C105.6 21.7911 105.926 20.6873 106.575 19.757C107.225 18.8268 108.189 18.1048 109.463 17.5876C110.737 17.0705 112.306 16.8101 114.163 16.8101H119.224C119.224 15.748 119.078 14.8663 118.787 14.1617C118.495 13.4571 118.044 12.933 117.433 12.5893C116.822 12.2457 116.038 12.0721 115.083 12.0721C113.993 12.0721 113.063 12.3186 112.296 12.808C111.525 13.3009 111.046 14.0506 110.862 15.0572H106.162C106.322 13.6237 106.801 12.3949 107.596 11.371C108.391 10.3505 109.449 9.55215 110.762 8.97942C112.077 8.41017 113.518 8.12207 115.083 8.12207C116.968 8.12207 118.575 8.44835 119.904 9.09744C121.23 9.75 122.247 10.6768 122.952 11.8847C123.657 13.0926 124.007 14.547 124.007 16.2478V28.6777H119.942L119.463 25.4496C119.196 25.9807 118.86 26.4735 118.446 26.9248C118.033 27.376 117.565 27.7682 117.034 28.1015C116.503 28.4347 115.899 28.6915 115.222 28.879C114.545 29.0629 113.781 29.1567 112.931 29.1567L112.927 29.1601ZM114.004 25.3767C114.774 25.3767 115.458 25.2378 116.055 24.9567C116.652 24.679 117.169 24.2798 117.61 23.7626C118.047 23.2455 118.387 22.6658 118.627 22.0306C118.866 21.3919 119.026 20.7151 119.106 20V19.9202H114.684C113.754 19.9202 112.983 20.0382 112.372 20.2777C111.761 20.5172 111.324 20.8435 111.057 21.2531C110.789 21.6661 110.657 22.1486 110.657 22.7074C110.657 23.2663 110.789 23.7418 111.057 24.141C111.32 24.5402 111.706 24.8456 112.212 25.0574C112.716 25.2691 113.313 25.3767 114.004 25.3767Z" fill="#0C9AE8"/>
</g>
</g>
</g>
<defs>
<clipPath id="clip0_5939_23432">
<rect width="124" height="29.1603" fill="white"/>
</clipPath>
</defs>
</svg>
