<svg width="336" height="562" viewBox="0 0 336 562" fill="none" xmlns="http://www.w3.org/2000/svg">
<g filter="url(#filter0_d_4998_43296)">
<g clip-path="url(#clip0_4998_43296)">
<rect x="16.8738" y="5" width="302.752" height="528" rx="6.45872" fill="white"/>
<g clip-path="url(#clip1_4998_43296)">
<rect x="29.7913" y="15.4961" width="276.917" height="20.9908" rx="6.45872" fill="#D9D9D9"/>
<rect x="29.7913" y="46.1748" width="276.917" height="20.9908" rx="6.45872" fill="#D9D9D9"/>
<rect width="302.752" height="58.1284" transform="translate(16.8738 71.2021)" fill="white"/>
<g clip-path="url(#clip2_4998_43296)" filter="url(#filter1_dd_4998_43296)">
<path d="M156.544 86.5967H36.2502V103.267H156.544V86.5967Z" fill="white"/>
<path d="M156.544 86.5967H36.2502V103.267H156.544V86.5967Z" fill="white"/>
<path d="M51.0787 97.7649L50.4386 100.242H41.3755L44.023 90.0947H47.5315L45.5035 97.7649H51.0787Z" fill="#E1251B"/>
<path d="M53.0242 94.9124C53.2324 94.2133 53.6771 93.6763 54.3608 93.2963C55.0419 92.924 56.0906 92.7314 57.5018 92.7314C59.0954 92.7314 60.1724 92.9113 60.7225 93.271C61.2777 93.6383 61.5424 94.1626 61.5218 94.8567C61.509 95.3177 61.3471 96.0802 61.0438 97.1339C60.7507 98.1345 60.6042 98.8311 60.5939 99.2212C60.5862 99.553 60.6453 99.895 60.7662 100.239H57.728C57.6611 99.9482 57.6329 99.6721 57.6354 99.4036C56.8001 100.077 55.8824 100.414 54.8774 100.414C53.8724 100.414 53.1167 100.196 52.6772 99.7607C52.2402 99.325 52.0243 98.826 52.0423 98.251C52.0577 97.6025 52.2685 97.1061 52.6798 96.7641C53.091 96.4221 53.5922 96.1916 54.1809 96.07C54.7746 95.9459 55.5817 95.8395 56.5996 95.7483C57.5095 95.6597 58.111 95.571 58.4168 95.49C58.4837 95.2747 58.5171 95.1075 58.5248 94.9909C58.5274 94.8035 58.4245 94.6566 58.2241 94.5502C58.021 94.4362 57.7485 94.3855 57.4015 94.3855C57.0545 94.3855 56.7564 94.4362 56.5276 94.5375C56.3014 94.6439 56.0984 94.8618 55.9261 95.1936L53.0242 94.9099V94.9124ZM58.0313 96.9541C56.5893 97.1719 55.7436 97.3619 55.4866 97.5291C55.2347 97.6963 55.0985 97.8938 55.0959 98.1193C55.0856 98.3523 55.1704 98.5398 55.3478 98.6766C55.5226 98.8083 55.7514 98.8792 56.0315 98.8792C56.4248 98.8792 56.8232 98.7323 57.2165 98.4486C57.6072 98.1573 57.8822 97.6608 58.0287 96.9541" fill="#E1251B"/>
<path d="M79.3966 90.0947L78.8234 92.2757H73.1197L72.7007 93.8867H78.2039L77.641 95.9461H72.1481L71.6212 97.9321H77.8132L77.2015 100.242H67.5471L70.21 90.0947H79.3966Z" fill="#E1251B"/>
<path d="M89.0149 95.4545L86.185 95.5913C86.0693 94.9504 85.604 94.6287 84.7764 94.6287C84.013 94.6287 83.4218 94.9074 82.9977 95.4621C82.571 96.0168 82.3525 96.6248 82.332 97.2808C82.3217 97.6785 82.4579 97.98 82.7484 98.1927C83.0285 98.4055 83.3421 98.5094 83.684 98.5094C84.5116 98.5094 85.1465 98.094 85.5732 97.2656L88.488 97.5519C87.7118 99.4593 86.0564 100.417 83.5118 100.417C80.6407 100.417 79.2347 99.3529 79.2938 97.2352C79.3221 96.0067 79.8233 94.9454 80.7897 94.0588C81.7613 93.1747 83.1082 92.7314 84.8201 92.7314C86.0539 92.7314 87.0332 92.9569 87.758 93.4154C88.4803 93.8713 88.8993 94.5477 89.0098 95.4545" fill="#E1251B"/>
<path d="M94.996 92.7344C96.456 92.7344 97.5099 93.0662 98.1602 93.7299C98.8079 94.3961 99.1266 95.1712 99.0984 96.0628C99.0804 96.7417 98.867 97.4332 98.4712 98.1298C98.0625 98.8315 97.4765 99.3888 96.6899 99.8016C95.9137 100.212 94.9626 100.42 93.8368 100.42C92.4102 100.42 91.3667 100.103 90.6984 99.4647C90.0352 98.8315 89.7191 98.0412 89.7371 97.0989C89.7602 96.3491 89.9838 95.6373 90.4105 94.9432C90.8295 94.2517 91.4335 93.7096 92.2175 93.3195C93.004 92.932 93.9268 92.7369 94.9935 92.7369M94.0836 98.5148C94.6696 98.5148 95.1374 98.2489 95.4973 97.7093C95.8494 97.1749 96.037 96.577 96.055 95.9184C96.0627 95.4448 95.9445 95.1129 95.6875 94.9179C95.433 94.7279 95.1451 94.6316 94.8315 94.6316C94.171 94.6316 93.6697 94.9002 93.3227 95.4397C92.9783 95.9792 92.7984 96.5315 92.7855 97.0963C92.7752 97.4991 92.8986 97.841 93.1428 98.1121C93.3998 98.3806 93.7109 98.5148 94.0836 98.5148Z" fill="#E1251B"/>
<path d="M104.27 94.0364C105.157 93.1675 106.211 92.7344 107.452 92.7344C108.188 92.7344 108.735 92.9041 109.1 93.2435C109.457 93.583 109.632 93.9984 109.614 94.4923C109.606 94.7887 109.493 95.3713 109.262 96.2351L108.216 100.242H105.085L105.977 96.8304C106.198 95.997 106.306 95.5157 106.309 95.3966C106.319 94.9913 106.113 94.7887 105.71 94.7887C105.25 94.7887 104.843 94.9812 104.486 95.3738C104.137 95.7614 103.859 96.3263 103.669 97.0609L102.818 100.24H99.6719L101.613 92.8965H104.535L104.239 94.0034L104.263 94.0338L104.27 94.0364Z" fill="#E1251B"/>
<path d="M115.947 92.7344C117.402 92.7344 118.459 93.0662 119.109 93.7324C119.759 94.3961 120.07 95.1737 120.052 96.0654C120.027 96.7442 119.818 97.4358 119.42 98.1349C119.016 98.8365 118.428 99.3913 117.649 99.8042C116.87 100.215 115.917 100.422 114.788 100.422C113.364 100.422 112.318 100.106 111.655 99.4673C110.992 98.834 110.67 98.0437 110.699 97.1014C110.719 96.3516 110.938 95.6398 111.362 94.9457C111.786 94.2542 112.39 93.7147 113.171 93.322C113.95 92.9345 114.878 92.7394 115.947 92.7394M115.04 98.5199C115.621 98.5199 116.091 98.2539 116.449 97.7144C116.806 97.1799 116.991 96.5821 117.006 95.9235C117.019 95.4498 116.896 95.118 116.644 94.9229C116.384 94.733 116.099 94.6367 115.78 94.6367C115.125 94.6367 114.626 94.9027 114.279 95.4448C113.935 95.9843 113.755 96.539 113.739 97.1014C113.729 97.5041 113.853 97.8461 114.102 98.1172C114.356 98.3857 114.667 98.5199 115.04 98.5199Z" fill="#E1251B"/>
<path d="M130.426 93.9806C131.027 93.4994 131.575 93.1726 132.068 92.9978C132.554 92.8205 133.073 92.7344 133.621 92.7344C134.356 92.7344 134.906 92.9117 135.263 93.2638C135.626 93.6159 135.795 94.0465 135.78 94.5481C135.777 94.8495 135.734 95.1383 135.659 95.422L134.374 100.245H131.241L132.074 97.1115C132.282 96.3111 132.4 95.8349 132.426 95.6829C132.454 95.5284 132.467 95.4245 132.467 95.3612C132.475 94.9812 132.282 94.7887 131.881 94.7887C131.413 94.7887 131.027 94.9685 130.711 95.3156C130.4 95.6651 130.143 96.2224 129.945 96.9773L129.087 100.245H125.951L126.763 97.1647C126.982 96.3364 127.102 95.8526 127.126 95.7006C127.156 95.5461 127.172 95.4346 127.172 95.351C127.182 94.9787 126.974 94.7912 126.555 94.7912C126.239 94.7912 125.907 94.9381 125.545 95.2295C125.185 95.5233 124.915 96.0198 124.727 96.7214L123.789 100.245H120.643L122.589 92.9016H125.493L125.213 93.9553L125.241 93.9832C126.154 93.1523 127.174 92.7369 128.29 92.7369C128.801 92.7369 129.249 92.8458 129.637 93.0611C130.03 93.2765 130.295 93.588 130.426 93.9832" fill="#E1251B"/>
<path d="M141.497 92.8988L139.559 100.242H136.423L138.356 92.8988H141.5H141.497ZM142.972 89.9199L140.117 91.9869H138.6L140.353 89.9199H142.975H142.972Z" fill="#E1251B"/>
<path d="M142.918 94.9124C143.127 94.2158 143.569 93.6788 144.252 93.2963C144.934 92.924 145.98 92.7314 147.396 92.7314C148.995 92.7314 150.072 92.9113 150.622 93.271C151.172 93.6358 151.437 94.1601 151.419 94.8542C151.406 95.3152 151.246 96.0776 150.938 97.1339C150.653 98.132 150.501 98.8286 150.496 99.2212C150.483 99.553 150.542 99.895 150.668 100.239H147.62C147.561 99.9482 147.53 99.6721 147.537 99.4036C146.705 100.077 145.782 100.414 144.772 100.414C143.762 100.414 143.008 100.194 142.574 99.7607C142.134 99.325 141.921 98.8235 141.937 98.251C141.955 97.6 142.168 97.1061 142.577 96.7666C142.99 96.4247 143.489 96.1916 144.08 96.07C144.671 95.9459 145.481 95.8421 146.494 95.7483C147.401 95.6597 148.01 95.571 148.309 95.49C148.378 95.2747 148.414 95.1049 148.416 94.9909C148.422 94.8035 148.327 94.654 148.116 94.5502C147.91 94.4362 147.638 94.3855 147.296 94.3855C146.954 94.3855 146.648 94.4362 146.424 94.5375C146.198 94.6439 145.998 94.8618 145.82 95.1936L142.918 94.9099V94.9124ZM147.928 96.9541C146.484 97.1719 145.638 97.3619 145.383 97.5291C145.126 97.6963 144.998 97.8938 144.99 98.1193C144.985 98.3523 145.067 98.5398 145.25 98.6766C145.422 98.8083 145.648 98.8792 145.931 98.8792C146.324 98.8792 146.72 98.7323 147.116 98.4486C147.507 98.1573 147.776 97.6608 147.928 96.9541Z" fill="#E1251B"/>
<path d="M156.544 103.267H36.2502V113.936H156.544V103.267Z" fill="#1A428A"/>
<path d="M76.1577 105.245H78.6253C79.1111 105.245 79.5043 105.311 79.8051 105.44C80.1032 105.569 80.3526 105.756 80.5479 106C80.7433 106.243 80.8846 106.526 80.972 106.848C81.0594 107.17 81.1031 107.514 81.1031 107.874C81.1031 108.441 81.0363 108.88 80.9078 109.191C80.7767 109.503 80.5942 109.764 80.3628 109.976C80.1315 110.187 79.8822 110.329 79.6149 110.397C79.2499 110.493 78.9209 110.541 78.6253 110.541H76.1577V105.242V105.245ZM77.8182 106.445V109.341H78.2243C78.5713 109.341 78.8181 109.303 78.9646 109.227C79.1111 109.151 79.2267 109.019 79.309 108.829C79.3912 108.639 79.4349 108.333 79.4349 107.91C79.4349 107.347 79.3424 106.965 79.1573 106.757C78.9723 106.549 78.6638 106.445 78.232 106.445H77.8182Z" fill="#FFE800"/>
<path d="M82.0439 106.706H83.4422V107.334C83.5759 107.063 83.7147 106.876 83.8586 106.772C84.0026 106.67 84.1774 106.617 84.3881 106.617C84.5989 106.617 84.8482 106.686 85.1104 106.82L84.6477 107.869C84.4729 107.795 84.3316 107.76 84.2288 107.76C84.0334 107.76 83.8818 107.838 83.7738 107.998C83.6196 108.221 83.5425 108.641 83.5425 109.257V110.543H82.0439V106.706Z" fill="#FFE800"/>
<path d="M85.45 108.636C85.45 108.051 85.6504 107.567 86.0514 107.19C86.4524 106.81 86.9947 106.62 87.6759 106.62C88.4547 106.62 89.0459 106.843 89.4443 107.289C89.7656 107.649 89.925 108.089 89.925 108.616C89.925 109.206 89.7271 109.69 89.3286 110.068C88.9302 110.445 88.3827 110.633 87.681 110.633C87.0539 110.633 86.5501 110.475 86.1619 110.164C85.6864 109.776 85.45 109.267 85.45 108.639M86.9459 108.636C86.9459 108.978 87.0153 109.232 87.1567 109.396C87.2981 109.561 87.4728 109.642 87.6862 109.642C87.8995 109.642 88.0769 109.561 88.2157 109.399C88.3545 109.237 88.4239 108.978 88.4239 108.621C88.4239 108.289 88.3545 108.041 88.2157 107.879C88.0769 107.717 87.9047 107.636 87.699 107.636C87.4805 107.636 87.3006 107.719 87.1592 107.884C87.0179 108.049 86.9459 108.3 86.9459 108.636Z" fill="#FFE800"/>
<path d="M93.505 106.706H94.9032V110.501C94.9058 110.741 94.8544 110.972 94.7516 111.19C94.6488 111.408 94.51 111.585 94.3378 111.719C94.1655 111.853 93.9471 111.952 93.6797 112.013C93.415 112.074 93.1117 112.104 92.7698 112.104C91.9884 112.104 91.4512 111.988 91.1582 111.757C90.8652 111.527 90.7187 111.215 90.7187 110.828C90.7187 110.779 90.7212 110.714 90.7264 110.633L92.1761 110.795C92.2121 110.926 92.2686 111.018 92.3457 111.068C92.4562 111.144 92.595 111.18 92.7595 111.18C92.9755 111.18 93.1348 111.124 93.2428 111.01C93.3482 110.896 93.4021 110.698 93.4021 110.417V109.835C93.2556 110.007 93.1091 110.131 92.9626 110.207C92.7338 110.329 92.4845 110.387 92.2172 110.387C91.6954 110.387 91.2764 110.164 90.9551 109.716C90.7264 109.396 90.6133 108.976 90.6133 108.454C90.6133 107.856 90.7598 107.4 91.0528 107.089C91.3458 106.775 91.7314 106.62 92.2043 106.62C92.5076 106.62 92.757 106.671 92.9549 106.772C93.1528 106.873 93.3353 107.041 93.5075 107.274V106.706H93.505ZM92.099 108.568C92.099 108.844 92.1581 109.049 92.2789 109.184C92.3997 109.318 92.5565 109.384 92.7518 109.384C92.9472 109.384 93.0937 109.315 93.2196 109.176C93.3456 109.037 93.4099 108.829 93.4099 108.55C93.4099 108.272 93.343 108.056 93.2119 107.909C93.0808 107.76 92.9189 107.687 92.7287 107.687C92.5385 107.687 92.3868 107.755 92.2712 107.892C92.1581 108.029 92.1015 108.254 92.1015 108.571" fill="#FFE800"/>
<path d="M100.06 110.544H98.667V109.924C98.4588 110.179 98.2506 110.362 98.0372 110.468C97.8265 110.577 97.5669 110.63 97.2584 110.63C96.8472 110.63 96.5259 110.509 96.292 110.268C96.058 110.025 95.9424 109.653 95.9424 109.149V106.704H97.4435V108.814C97.4435 109.055 97.4898 109.227 97.5797 109.328C97.6697 109.43 97.7982 109.48 97.9601 109.48C98.1401 109.48 98.284 109.412 98.3997 109.278C98.5128 109.143 98.5693 108.9 98.5693 108.551V106.704H100.063V110.542L100.06 110.544Z" fill="#FFE800"/>
<path d="M105.439 108.991H102.447C102.473 109.227 102.54 109.404 102.643 109.518C102.787 109.685 102.974 109.769 103.208 109.769C103.355 109.769 103.493 109.733 103.627 109.66C103.707 109.614 103.794 109.533 103.887 109.417L105.357 109.551C105.131 109.936 104.861 110.212 104.542 110.379C104.223 110.547 103.768 110.63 103.175 110.63C102.658 110.63 102.252 110.559 101.956 110.415C101.661 110.27 101.414 110.042 101.221 109.731C101.026 109.419 100.928 109.052 100.928 108.629C100.928 108.029 101.124 107.542 101.514 107.173C101.905 106.803 102.442 106.615 103.131 106.615C103.689 106.615 104.128 106.699 104.452 106.863C104.774 107.031 105.02 107.271 105.19 107.585C105.36 107.902 105.442 108.312 105.442 108.819V108.986L105.439 108.991ZM103.92 108.287C103.892 108.003 103.812 107.798 103.686 107.677C103.56 107.555 103.396 107.492 103.19 107.492C102.954 107.492 102.763 107.585 102.622 107.77C102.532 107.887 102.473 108.059 102.45 108.287H103.92Z" fill="#FFE800"/>
<path d="M106.29 106.706H107.689V107.334C107.822 107.063 107.961 106.876 108.105 106.772C108.249 106.67 108.424 106.617 108.635 106.617C108.845 106.617 109.095 106.686 109.357 106.82L108.894 107.869C108.719 107.795 108.578 107.76 108.475 107.76C108.28 107.76 108.128 107.838 108.02 107.998C107.866 108.221 107.789 108.641 107.789 109.257V110.543H106.288V106.706H106.29Z" fill="#FFE800"/>
<path d="M109.814 106.706H111.308V110.544H109.814V106.706ZM110.519 105.156H111.801L110.616 106.238H109.902L110.519 105.156Z" fill="#FFE800"/>
<path d="M113.773 107.95L112.346 107.801C112.4 107.555 112.477 107.362 112.58 107.22C112.68 107.079 112.827 106.957 113.017 106.853C113.153 106.777 113.343 106.721 113.582 106.681C113.821 106.64 114.081 106.62 114.359 106.62C114.806 106.62 115.166 106.645 115.438 106.694C115.711 106.744 115.937 106.846 116.117 107.003C116.243 107.112 116.343 107.266 116.418 107.464C116.492 107.661 116.528 107.851 116.528 108.034V109.728C116.528 109.908 116.538 110.05 116.564 110.154C116.587 110.255 116.639 110.387 116.716 110.546H115.315C115.258 110.448 115.222 110.372 115.204 110.321C115.186 110.27 115.171 110.189 115.153 110.078C114.958 110.263 114.762 110.397 114.569 110.475C114.305 110.582 113.999 110.635 113.649 110.635C113.184 110.635 112.832 110.529 112.59 110.316C112.349 110.103 112.228 109.842 112.228 109.531C112.228 109.239 112.315 108.999 112.487 108.811C112.662 108.624 112.981 108.484 113.449 108.393C114.009 108.282 114.371 108.206 114.539 108.16C114.706 108.115 114.88 108.056 115.065 107.985C115.065 107.806 115.027 107.679 114.952 107.605C114.878 107.532 114.744 107.497 114.551 107.497C114.307 107.497 114.125 107.535 114.001 107.613C113.906 107.674 113.829 107.785 113.77 107.953M115.065 108.725C114.86 108.799 114.647 108.862 114.423 108.918C114.12 108.996 113.927 109.075 113.847 109.153C113.765 109.232 113.724 109.323 113.724 109.424C113.724 109.541 113.765 109.634 113.847 109.708C113.929 109.781 114.05 109.819 114.21 109.819C114.369 109.819 114.531 109.779 114.672 109.7C114.816 109.619 114.916 109.523 114.976 109.409C115.035 109.295 115.065 109.146 115.065 108.963V108.728V108.725Z" fill="#FFE800"/>
</g>
<path d="M193.681 100.872C195.019 100.872 196.103 99.7872 196.103 98.4496C196.103 97.1119 195.019 96.0276 193.681 96.0276C192.344 96.0276 191.259 97.1119 191.259 98.4496C191.259 99.7872 192.344 100.872 193.681 100.872Z" stroke="#344054" stroke-width="1.21101" stroke-linecap="round" stroke-linejoin="round"/>
<path d="M199.736 98.4496C199.736 103.899 193.681 108.138 193.681 108.138C193.681 108.138 187.626 103.899 187.626 98.4496C187.626 96.8437 188.264 95.3036 189.4 94.168C190.535 93.0325 192.075 92.3945 193.681 92.3945C195.287 92.3945 196.827 93.0325 197.963 94.168C199.098 95.3036 199.736 96.8437 199.736 98.4496Z" stroke="#344054" stroke-width="1.21101" stroke-linecap="round" stroke-linejoin="round"/>
<path d="M218.109 106.624C217.941 106.914 218.041 107.284 218.33 107.451C218.62 107.618 218.99 107.519 219.157 107.229L218.109 106.624ZM232.792 107.229C232.959 107.519 233.33 107.618 233.619 107.451C233.909 107.284 234.008 106.914 233.841 106.624L232.792 107.229ZM230.213 97.844C230.213 100.185 228.316 102.083 225.975 102.083V103.294C228.984 103.294 231.424 100.854 231.424 97.844H230.213ZM225.975 102.083C223.634 102.083 221.736 100.185 221.736 97.844H220.525C220.525 100.854 222.965 103.294 225.975 103.294V102.083ZM221.736 97.844C221.736 95.5032 223.634 93.6055 225.975 93.6055V92.3945C222.965 92.3945 220.525 94.8343 220.525 97.844H221.736ZM225.975 93.6055C228.316 93.6055 230.213 95.5032 230.213 97.844H231.424C231.424 94.8343 228.984 92.3945 225.975 92.3945V93.6055ZM219.157 107.229C219.848 106.032 220.842 105.039 222.039 104.348L221.433 103.299C220.052 104.096 218.906 105.243 218.109 106.624L219.157 107.229ZM222.039 104.348C223.235 103.657 224.593 103.294 225.975 103.294V102.083C224.381 102.083 222.814 102.502 221.433 103.299L222.039 104.348ZM225.975 103.294C227.357 103.294 228.714 103.657 229.911 104.348L230.516 103.299C229.135 102.502 227.569 102.083 225.975 102.083V103.294ZM229.911 104.348C231.108 105.039 232.101 106.032 232.792 107.229L233.841 106.624C233.044 105.243 231.897 104.096 230.516 103.299L229.911 104.348Z" fill="#344054"/>
<path d="M257.867 92.5386L257.751 91.9444L257.749 91.9448L257.867 92.5386ZM251.759 93.7572L251.641 93.1634C251.401 93.2113 251.213 93.3988 251.165 93.6387L251.759 93.7572ZM250.541 99.8652L249.947 99.7468L249.946 99.7489L250.541 99.8652ZM250.707 100.41L251.135 99.982L251.135 99.9816L250.707 100.41ZM258.609 108.312L259.042 107.889L259.037 107.884L258.609 108.312ZM259.464 108.312L259.036 107.884L259.031 107.889L259.464 108.312ZM266.314 101.462L265.891 101.029L265.886 101.034L266.314 101.462ZM266.314 100.607L265.886 101.035L265.891 101.04L266.314 100.607ZM258.412 92.7051L257.984 93.1328L257.984 93.1333L258.412 92.7051ZM254.938 96.6333V96.0278H254.938L254.938 96.6333ZM254.748 96.7002L254.369 96.2285L254.748 96.7002ZM254.938 96.9361L254.466 97.3156L254.648 97.5416H254.938V96.9361ZM257.749 91.9448L251.641 93.1634L251.878 94.351L257.986 93.1324L257.749 91.9448ZM251.165 93.6387L249.947 99.7468L251.134 99.9837L252.353 93.8757L251.165 93.6387ZM249.946 99.7489C249.908 99.9439 249.919 100.145 249.977 100.335L251.135 99.9816L251.135 99.9816L249.946 99.7489ZM249.977 100.335C250.035 100.526 250.139 100.698 250.279 100.839L251.135 99.9816L251.135 99.9816L249.977 100.335ZM250.279 100.838L258.181 108.74L259.037 107.884L251.135 99.982L250.279 100.838ZM258.176 108.735C258.288 108.85 258.422 108.941 258.57 109.003L259.04 107.887C259.04 107.888 259.041 107.888 259.042 107.889L258.176 108.735ZM258.57 109.003C258.717 109.065 258.876 109.098 259.037 109.098V107.887C259.038 107.887 259.039 107.887 259.04 107.887L258.57 109.003ZM259.037 109.098C259.197 109.098 259.356 109.065 259.503 109.003L259.034 107.887C259.035 107.887 259.036 107.887 259.037 107.887V109.098ZM259.503 109.003C259.651 108.941 259.785 108.85 259.897 108.735L259.031 107.889C259.032 107.888 259.033 107.888 259.034 107.887L259.503 109.003ZM259.892 108.74L266.742 101.89L265.886 101.034L259.036 107.884L259.892 108.74ZM266.737 101.895C266.852 101.783 266.943 101.649 267.005 101.502L265.889 101.032C265.889 101.031 265.89 101.03 265.891 101.029L266.737 101.895ZM267.005 101.502C267.067 101.354 267.1 101.195 267.1 101.035H265.888C265.888 101.034 265.889 101.033 265.889 101.032L267.005 101.502ZM267.1 101.035C267.1 100.874 267.067 100.715 267.005 100.568L265.889 101.038C265.889 101.037 265.888 101.036 265.888 101.035H267.1ZM267.005 100.568C266.943 100.42 266.852 100.286 266.737 100.174L265.891 101.04C265.89 101.039 265.889 101.038 265.889 101.038L267.005 100.568ZM266.742 100.179L258.84 92.277L257.984 93.1333L265.886 101.035L266.742 100.179ZM258.841 92.2774C258.7 92.1367 258.527 92.0328 258.337 91.9747L257.984 93.1328L257.984 93.1328L258.841 92.2774ZM258.337 91.9747C258.147 91.9166 257.946 91.9062 257.751 91.9444L257.984 93.1328L257.984 93.1328L258.337 91.9747ZM255.241 96.9361C255.241 97.1033 255.105 97.2389 254.938 97.2389V98.4499C255.774 98.4499 256.452 97.7721 256.452 96.9361H255.241ZM254.938 97.2389C254.771 97.2389 254.635 97.1033 254.635 96.9361H253.424C253.424 97.7721 254.102 98.4499 254.938 98.4499V97.2389ZM254.635 96.9361C254.635 96.7689 254.771 96.6334 254.938 96.6334V95.4223C254.102 95.4223 253.424 96.1001 253.424 96.9361H254.635ZM254.938 96.6334C255.105 96.6334 255.241 96.7689 255.241 96.9361H256.452C256.452 96.1001 255.774 95.4223 254.938 95.4223V96.6334ZM254.938 96.6334C255.105 96.6334 255.241 96.7688 255.241 96.9361H254.03C254.03 97.4378 254.437 97.8444 254.938 97.8444V96.6334ZM254.635 96.9361C254.635 96.7689 254.771 96.6334 254.938 96.6334V97.8444C255.44 97.8444 255.846 97.4377 255.846 96.9361H254.635ZM254.938 97.2388C254.771 97.2388 254.635 97.1033 254.635 96.9361H255.846C255.846 96.4345 255.44 96.0278 254.938 96.0278V97.2388ZM254.51 97.0615L254.813 97.3643L255.669 96.5079L255.366 96.2052L254.51 97.0615ZM254.938 96.0278C254.723 96.0278 254.524 96.1034 254.369 96.2285L255.128 97.1718C255.076 97.2134 255.01 97.2388 254.938 97.2388L254.938 96.0278ZM254.369 96.2285C254.163 96.394 254.03 96.6496 254.03 96.9361H255.241C255.241 97.0318 255.196 97.1174 255.128 97.1718L254.369 96.2285ZM254.276 97.0796C254.352 97.174 254.4 97.233 254.428 97.2684C254.442 97.2861 254.452 97.2979 254.458 97.3052C254.461 97.3089 254.463 97.3115 254.464 97.3132C254.465 97.314 254.465 97.3146 254.466 97.315C254.466 97.3152 254.466 97.3153 254.466 97.3154C254.466 97.3155 254.466 97.3155 254.466 97.3155C254.466 97.3155 254.466 97.3155 254.466 97.3156C254.466 97.3156 254.466 97.3156 254.466 97.3156C254.466 97.3156 254.466 97.3156 254.466 97.3156C254.466 97.3156 254.466 97.3156 254.938 96.9361C255.41 96.5566 255.41 96.5566 255.41 96.5566C255.41 96.5566 255.41 96.5566 255.41 96.5566C255.41 96.5566 255.41 96.5566 255.41 96.5566C255.41 96.5566 255.41 96.5566 255.41 96.5566C255.41 96.5566 255.41 96.5566 255.41 96.5565C255.41 96.5564 255.41 96.5563 255.409 96.5561C255.409 96.5557 255.409 96.5551 255.408 96.5543C255.407 96.5526 255.405 96.55 255.402 96.5463C255.396 96.539 255.386 96.5272 255.372 96.5095C255.344 96.4741 255.296 96.4151 255.22 96.3207L254.276 97.0796ZM254.938 97.5416H255.241V96.3306H254.938V97.5416Z" fill="#344054"/>
<path d="M284.076 95.422C283.741 95.422 283.47 95.6931 283.47 96.0275C283.47 96.3619 283.741 96.633 284.076 96.633V95.422ZM297.654 96.0275L298.236 96.1939C298.288 96.0112 298.252 95.8146 298.137 95.6629C298.023 95.5112 297.844 95.422 297.654 95.422V96.0275ZM295.656 103.021L295.074 102.855L295.073 102.857L295.656 103.021ZM294.49 103.899L294.494 103.294H294.49V103.899ZM287.239 103.899V103.294L287.236 103.294L287.239 103.899ZM286.074 103.021L286.657 102.857L286.656 102.855L286.074 103.021ZM283.334 93.439L283.916 93.2725L283.916 93.2725L283.334 93.439ZM282.751 93V93.6055L282.752 93.6055L282.751 93ZM281.479 92.3945C281.145 92.3945 280.874 92.6656 280.874 93C280.874 93.3344 281.145 93.6055 281.479 93.6055V92.3945ZM286.929 108.743C287.932 108.743 288.746 107.93 288.746 106.927H287.535C287.535 107.261 287.263 107.532 286.929 107.532V108.743ZM288.746 106.927C288.746 105.923 287.932 105.11 286.929 105.11V106.321C287.263 106.321 287.535 106.592 287.535 106.927H288.746ZM286.929 105.11C285.926 105.11 285.113 105.923 285.113 106.927H286.324C286.324 106.592 286.595 106.321 286.929 106.321V105.11ZM285.113 106.927C285.113 107.93 285.926 108.743 286.929 108.743V107.532C286.595 107.532 286.324 107.261 286.324 106.927H285.113ZM294.801 108.743C295.804 108.743 296.617 107.93 296.617 106.927H295.406C295.406 107.261 295.135 107.532 294.801 107.532V108.743ZM296.617 106.927C296.617 105.923 295.804 105.11 294.801 105.11V106.321C295.135 106.321 295.406 106.592 295.406 106.927H296.617ZM294.801 105.11C293.797 105.11 292.984 105.923 292.984 106.927H294.195C294.195 106.592 294.466 106.321 294.801 106.321V105.11ZM292.984 106.927C292.984 107.93 293.797 108.743 294.801 108.743V107.532C294.466 107.532 294.195 107.261 294.195 106.927H292.984ZM284.076 96.633H297.654V95.422H284.076V96.633ZM297.072 95.8612L295.074 102.855L296.238 103.187L298.236 96.1939L297.072 95.8612ZM295.073 102.857C295.038 102.983 294.962 103.094 294.857 103.173L295.586 104.141C295.902 103.902 296.132 103.566 296.239 103.185L295.073 102.857ZM294.857 103.173C294.752 103.252 294.625 103.294 294.494 103.294L294.487 104.505C294.883 104.507 295.269 104.379 295.586 104.141L294.857 103.173ZM294.49 103.294H287.239V104.505H294.49V103.294ZM287.236 103.294C287.105 103.294 286.977 103.252 286.873 103.173L286.144 104.141C286.461 104.379 286.847 104.507 287.243 104.505L287.236 103.294ZM286.873 103.173C286.768 103.094 286.692 102.983 286.657 102.857L285.491 103.185C285.598 103.566 285.827 103.902 286.144 104.141L286.873 103.173ZM286.656 102.855L283.916 93.2725L282.752 93.6055L285.492 103.188L286.656 102.855ZM283.916 93.2725C283.844 93.0193 283.691 92.7966 283.48 92.6382L282.752 93.6055L282.752 93.6055L283.916 93.2725ZM283.48 92.6382C283.27 92.4798 283.014 92.3942 282.75 92.3945L282.752 93.6055L282.752 93.6055L283.48 92.6382ZM282.751 92.3945H281.479V93.6055H282.751V92.3945Z" fill="#344054"/>
<rect x="290.645" y="83.3125" width="16.4954" height="17" rx="8.24771" fill="#BB251A"/>
<path d="M299.564 88.4533V95.3125H298.625V89.5965L297.326 90.6816L296.774 90.0325L298.721 88.4533H299.564Z" fill="white"/>
<rect width="302.752" height="48.4404" transform="translate(16.8738 129.331)" fill="white"/>
<path d="M39.4792 148.707H52.3967M39.4792 153.551H52.3967M39.4792 158.395H52.3967" stroke="#004F9B" stroke-width="1.21101" stroke-linecap="round" stroke-linejoin="round"/>
<rect x="68.5435" y="135.79" width="231.706" height="35.5229" rx="6.45872" fill="#F2F4F7"/>
<path d="M85.5881 153.615C85.8335 153.654 86.0563 153.754 86.2565 153.915C86.4632 154.077 86.6247 154.277 86.7409 154.516C86.8637 154.755 86.925 155.01 86.925 155.281C86.925 155.623 86.8378 155.933 86.6634 156.211C86.489 156.482 86.2339 156.699 85.8981 156.86C85.5687 157.015 85.1779 157.093 84.7258 157.093H82.2069V150.34H84.6289C85.0875 150.34 85.4783 150.418 85.8012 150.573C86.1241 150.721 86.3663 150.925 86.5278 151.183C86.6893 151.441 86.77 151.732 86.77 152.055C86.77 152.455 86.6602 152.788 86.4406 153.053C86.2275 153.311 85.9433 153.498 85.5881 153.615ZM83.0885 153.256H84.5708C84.9842 153.256 85.3039 153.159 85.5299 152.966C85.756 152.772 85.869 152.504 85.869 152.162C85.869 151.819 85.756 151.551 85.5299 151.357C85.3039 151.164 84.9777 151.067 84.5514 151.067H83.0885V153.256ZM84.6483 156.366C85.0875 156.366 85.4298 156.263 85.6752 156.056C85.9207 155.849 86.0434 155.562 86.0434 155.194C86.0434 154.819 85.9142 154.525 85.6559 154.312C85.3975 154.093 85.052 153.983 84.6192 153.983H83.0885V156.366H84.6483ZM92.8568 151.784V157.093H91.9752V156.308C91.8073 156.579 91.5716 156.792 91.268 156.947C90.9709 157.096 90.6415 157.17 90.2798 157.17C89.8665 157.17 89.4951 157.086 89.1657 156.918C88.8363 156.744 88.5747 156.486 88.3809 156.143C88.1936 155.801 88.1 155.384 88.1 154.894V151.784H88.9719V154.777C88.9719 155.3 89.1043 155.704 89.3691 155.988C89.6339 156.266 89.9956 156.405 90.4542 156.405C90.9257 156.405 91.2971 156.26 91.5683 155.969C91.8396 155.678 91.9752 155.255 91.9752 154.7V151.784H92.8568ZM96.2249 157.18C95.818 157.18 95.4531 157.112 95.1301 156.977C94.8072 156.834 94.5521 156.641 94.3648 156.395C94.1775 156.143 94.0741 155.856 94.0548 155.533H94.9654C94.9913 155.798 95.114 156.014 95.3336 156.182C95.5596 156.35 95.8535 156.434 96.2152 156.434C96.551 156.434 96.8159 156.36 97.0096 156.211C97.2034 156.063 97.3003 155.875 97.3003 155.649C97.3003 155.417 97.1969 155.246 96.9902 155.136C96.7836 155.02 96.4639 154.906 96.0311 154.797C95.6371 154.693 95.3142 154.59 95.0623 154.487C94.8169 154.377 94.6037 154.219 94.4229 154.012C94.2485 153.799 94.1613 153.521 94.1613 153.179C94.1613 152.908 94.2421 152.659 94.4035 152.433C94.565 152.207 94.7943 152.029 95.0914 151.9C95.3885 151.764 95.7276 151.697 96.1086 151.697C96.6964 151.697 97.1711 151.845 97.5328 152.142C97.8945 152.439 98.0882 152.846 98.1141 153.363H97.2324C97.2131 153.085 97.1 152.862 96.8934 152.694C96.6931 152.526 96.4219 152.442 96.0796 152.442C95.7631 152.442 95.5112 152.51 95.3239 152.646C95.1366 152.782 95.0429 152.959 95.0429 153.179C95.0429 153.353 95.0978 153.498 95.2076 153.615C95.3239 153.725 95.466 153.815 95.6339 153.886C95.8083 153.951 96.0473 154.025 96.3508 154.109C96.7319 154.212 97.0419 154.316 97.2809 154.419C97.5199 154.516 97.7233 154.664 97.8912 154.865C98.0656 155.065 98.156 155.326 98.1625 155.649C98.1625 155.94 98.0818 156.201 97.9203 156.434C97.7588 156.666 97.5295 156.851 97.2324 156.986C96.9418 157.115 96.6059 157.18 96.2249 157.18ZM99.0776 154.429C99.0776 153.88 99.1874 153.402 99.407 152.995C99.6266 152.581 99.9302 152.262 100.318 152.036C100.712 151.81 101.161 151.697 101.664 151.697C102.317 151.697 102.853 151.855 103.273 152.171C103.699 152.488 103.98 152.927 104.115 153.489H103.166C103.076 153.166 102.898 152.911 102.633 152.723C102.375 152.536 102.052 152.442 101.664 152.442C101.161 152.442 100.754 152.617 100.444 152.966C100.134 153.308 99.9786 153.796 99.9786 154.429C99.9786 155.068 100.134 155.562 100.444 155.911C100.754 156.26 101.161 156.434 101.664 156.434C102.052 156.434 102.375 156.344 102.633 156.163C102.892 155.982 103.069 155.724 103.166 155.388H104.115C103.973 155.93 103.689 156.366 103.263 156.696C102.837 157.018 102.304 157.18 101.664 157.18C101.161 157.18 100.712 157.067 100.318 156.841C99.9302 156.615 99.6266 156.295 99.407 155.882C99.1874 155.468 99.0776 154.984 99.0776 154.429ZM104.962 154.419C104.962 153.876 105.072 153.402 105.292 152.995C105.511 152.581 105.812 152.262 106.193 152.036C106.58 151.81 107.01 151.697 107.481 151.697C107.946 151.697 108.35 151.797 108.692 151.997C109.035 152.197 109.29 152.449 109.458 152.753V151.784H110.349V157.093H109.458V156.105C109.283 156.415 109.022 156.673 108.673 156.88C108.331 157.08 107.93 157.18 107.472 157.18C107 157.18 106.574 157.064 106.193 156.831C105.812 156.599 105.511 156.273 105.292 155.853C105.072 155.433 104.962 154.955 104.962 154.419ZM109.458 154.429C109.458 154.028 109.377 153.679 109.215 153.382C109.054 153.085 108.834 152.859 108.557 152.704C108.285 152.543 107.985 152.462 107.656 152.462C107.326 152.462 107.026 152.539 106.755 152.694C106.483 152.849 106.267 153.075 106.106 153.373C105.944 153.67 105.863 154.018 105.863 154.419C105.863 154.826 105.944 155.181 106.106 155.485C106.267 155.782 106.483 156.011 106.755 156.172C107.026 156.327 107.326 156.405 107.656 156.405C107.985 156.405 108.285 156.327 108.557 156.172C108.834 156.011 109.054 155.782 109.215 155.485C109.377 155.181 109.458 154.829 109.458 154.429ZM112.72 152.646C112.875 152.342 113.095 152.107 113.379 151.939C113.67 151.771 114.022 151.687 114.435 151.687V152.598H114.203C113.215 152.598 112.72 153.134 112.72 154.206V157.093H111.839V151.784H112.72V152.646ZM118.917 152.762C119.092 152.459 119.35 152.207 119.692 152.007C120.041 151.8 120.445 151.697 120.903 151.697C121.375 151.697 121.801 151.81 122.182 152.036C122.57 152.262 122.873 152.581 123.093 152.995C123.313 153.402 123.422 153.876 123.422 154.419C123.422 154.955 123.313 155.433 123.093 155.853C122.873 156.273 122.57 156.599 122.182 156.831C121.801 157.064 121.375 157.18 120.903 157.18C120.451 157.18 120.051 157.08 119.702 156.88C119.36 156.673 119.098 156.418 118.917 156.114V159.612H118.036V151.784H118.917V152.762ZM122.521 154.419C122.521 154.018 122.441 153.67 122.279 153.373C122.118 153.075 121.898 152.849 121.62 152.694C121.349 152.539 121.049 152.462 120.719 152.462C120.396 152.462 120.096 152.543 119.818 152.704C119.547 152.859 119.328 153.088 119.16 153.392C118.998 153.689 118.917 154.035 118.917 154.429C118.917 154.829 118.998 155.181 119.16 155.485C119.328 155.782 119.547 156.011 119.818 156.172C120.096 156.327 120.396 156.405 120.719 156.405C121.049 156.405 121.349 156.327 121.62 156.172C121.898 156.011 122.118 155.782 122.279 155.485C122.441 155.181 122.521 154.826 122.521 154.419ZM126.898 157.18C126.401 157.18 125.949 157.067 125.542 156.841C125.141 156.615 124.825 156.295 124.592 155.882C124.366 155.462 124.253 154.978 124.253 154.429C124.253 153.886 124.37 153.408 124.602 152.995C124.841 152.575 125.164 152.255 125.571 152.036C125.978 151.81 126.433 151.697 126.937 151.697C127.441 151.697 127.896 151.81 128.303 152.036C128.71 152.255 129.03 152.572 129.262 152.985C129.501 153.398 129.621 153.88 129.621 154.429C129.621 154.978 129.498 155.462 129.252 155.882C129.013 156.295 128.687 156.615 128.274 156.841C127.861 157.067 127.402 157.18 126.898 157.18ZM126.898 156.405C127.215 156.405 127.512 156.331 127.79 156.182C128.067 156.034 128.29 155.811 128.458 155.514C128.632 155.217 128.72 154.855 128.72 154.429C128.72 154.002 128.636 153.641 128.468 153.343C128.3 153.046 128.08 152.827 127.809 152.685C127.538 152.536 127.244 152.462 126.927 152.462C126.604 152.462 126.307 152.536 126.036 152.685C125.771 152.827 125.558 153.046 125.397 153.343C125.235 153.641 125.154 154.002 125.154 154.429C125.154 154.861 125.232 155.226 125.387 155.523C125.548 155.82 125.761 156.043 126.026 156.192C126.291 156.334 126.582 156.405 126.898 156.405ZM131.661 152.646C131.816 152.342 132.036 152.107 132.32 151.939C132.611 151.771 132.963 151.687 133.376 151.687V152.598H133.144C132.155 152.598 131.661 153.134 131.661 154.206V157.093H130.78V151.784H131.661V152.646ZM137.858 152.762C138.033 152.459 138.291 152.207 138.633 152.007C138.982 151.8 139.386 151.697 139.844 151.697C140.316 151.697 140.742 151.81 141.123 152.036C141.511 152.262 141.814 152.581 142.034 152.995C142.253 153.402 142.363 153.876 142.363 154.419C142.363 154.955 142.253 155.433 142.034 155.853C141.814 156.273 141.511 156.599 141.123 156.831C140.742 157.064 140.316 157.18 139.844 157.18C139.392 157.18 138.992 157.08 138.643 156.88C138.301 156.673 138.039 156.418 137.858 156.114V159.612H136.977V151.784H137.858V152.762ZM141.462 154.419C141.462 154.018 141.382 153.67 141.22 153.373C141.059 153.075 140.839 152.849 140.561 152.694C140.29 152.539 139.99 152.462 139.66 152.462C139.337 152.462 139.037 152.543 138.759 152.704C138.488 152.859 138.268 153.088 138.101 153.392C137.939 153.689 137.858 154.035 137.858 154.429C137.858 154.829 137.939 155.181 138.101 155.485C138.268 155.782 138.488 156.011 138.759 156.172C139.037 156.327 139.337 156.405 139.66 156.405C139.99 156.405 140.29 156.327 140.561 156.172C140.839 156.011 141.059 155.782 141.22 155.485C141.382 155.181 141.462 154.826 141.462 154.419ZM144.405 152.646C144.56 152.342 144.78 152.107 145.064 151.939C145.355 151.771 145.707 151.687 146.12 151.687V152.598H145.888C144.899 152.598 144.405 153.134 144.405 154.206V157.093H143.524V151.784H144.405V152.646ZM149.453 157.18C148.956 157.18 148.504 157.067 148.097 156.841C147.696 156.615 147.38 156.295 147.148 155.882C146.921 155.462 146.808 154.978 146.808 154.429C146.808 153.886 146.925 153.408 147.157 152.995C147.396 152.575 147.719 152.255 148.126 152.036C148.533 151.81 148.988 151.697 149.492 151.697C149.996 151.697 150.451 151.81 150.858 152.036C151.265 152.255 151.585 152.572 151.817 152.985C152.056 153.398 152.176 153.88 152.176 154.429C152.176 154.978 152.053 155.462 151.807 155.882C151.568 156.295 151.242 156.615 150.829 156.841C150.416 157.067 149.957 157.18 149.453 157.18ZM149.453 156.405C149.77 156.405 150.067 156.331 150.345 156.182C150.622 156.034 150.845 155.811 151.013 155.514C151.187 155.217 151.275 154.855 151.275 154.429C151.275 154.002 151.191 153.641 151.023 153.343C150.855 153.046 150.635 152.827 150.364 152.685C150.093 152.536 149.799 152.462 149.482 152.462C149.159 152.462 148.862 152.536 148.591 152.685C148.326 152.827 148.113 153.046 147.952 153.343C147.79 153.641 147.709 154.002 147.709 154.429C147.709 154.861 147.787 155.226 147.942 155.523C148.103 155.82 148.317 156.043 148.581 156.192C148.846 156.334 149.137 156.405 149.453 156.405ZM153.005 154.419C153.005 153.876 153.115 153.402 153.335 152.995C153.554 152.581 153.855 152.262 154.236 152.036C154.623 151.81 155.056 151.697 155.534 151.697C155.947 151.697 156.332 151.793 156.687 151.987C157.042 152.174 157.313 152.423 157.501 152.733V149.924H158.392V157.093H157.501V156.095C157.326 156.411 157.068 156.673 156.726 156.88C156.383 157.08 155.983 157.18 155.524 157.18C155.053 157.18 154.623 157.064 154.236 156.831C153.855 156.599 153.554 156.273 153.335 155.853C153.115 155.433 153.005 154.955 153.005 154.419ZM157.501 154.429C157.501 154.028 157.42 153.679 157.258 153.382C157.097 153.085 156.877 152.859 156.6 152.704C156.328 152.543 156.028 152.462 155.699 152.462C155.369 152.462 155.069 152.539 154.798 152.694C154.526 152.849 154.31 153.075 154.149 153.373C153.987 153.67 153.906 154.018 153.906 154.419C153.906 154.826 153.987 155.181 154.149 155.485C154.31 155.782 154.526 156.011 154.798 156.172C155.069 156.327 155.369 156.405 155.699 156.405C156.028 156.405 156.328 156.327 156.6 156.172C156.877 156.011 157.097 155.782 157.258 155.485C157.42 155.181 157.501 154.829 157.501 154.429ZM164.59 151.784V157.093H163.709V156.308C163.541 156.579 163.305 156.792 163.001 156.947C162.704 157.096 162.375 157.17 162.013 157.17C161.6 157.17 161.228 157.086 160.899 156.918C160.57 156.744 160.308 156.486 160.114 156.143C159.927 155.801 159.833 155.384 159.833 154.894V151.784H160.705V154.777C160.705 155.3 160.838 155.704 161.102 155.988C161.367 156.266 161.729 156.405 162.188 156.405C162.659 156.405 163.03 156.26 163.302 155.969C163.573 155.678 163.709 155.255 163.709 154.7V151.784H164.59ZM165.749 154.429C165.749 153.88 165.859 153.402 166.079 152.995C166.298 152.581 166.602 152.262 166.989 152.036C167.383 151.81 167.832 151.697 168.336 151.697C168.988 151.697 169.524 151.855 169.944 152.171C170.371 152.488 170.652 152.927 170.787 153.489H169.838C169.747 153.166 169.57 152.911 169.305 152.723C169.047 152.536 168.724 152.442 168.336 152.442C167.832 152.442 167.425 152.617 167.115 152.966C166.805 153.308 166.65 153.796 166.65 154.429C166.65 155.068 166.805 155.562 167.115 155.911C167.425 156.26 167.832 156.434 168.336 156.434C168.724 156.434 169.047 156.344 169.305 156.163C169.563 155.982 169.741 155.724 169.838 155.388H170.787C170.645 155.93 170.361 156.366 169.935 156.696C169.508 157.018 168.975 157.18 168.336 157.18C167.832 157.18 167.383 157.067 166.989 156.841C166.602 156.615 166.298 156.295 166.079 155.882C165.859 155.468 165.749 154.984 165.749 154.429ZM173.039 152.51V155.64C173.039 155.898 173.094 156.082 173.204 156.192C173.313 156.295 173.504 156.347 173.775 156.347H174.424V157.093H173.63C173.139 157.093 172.771 156.98 172.525 156.754C172.28 156.528 172.157 156.156 172.157 155.64V152.51H171.469V151.784H172.157V150.447H173.039V151.784H174.424V152.51H173.039ZM177.808 157.18C177.311 157.18 176.858 157.067 176.452 156.841C176.051 156.615 175.735 156.295 175.502 155.882C175.276 155.462 175.163 154.978 175.163 154.429C175.163 153.886 175.279 153.408 175.512 152.995C175.751 152.575 176.074 152.255 176.481 152.036C176.888 151.81 177.343 151.697 177.847 151.697C178.35 151.697 178.806 151.81 179.213 152.036C179.62 152.255 179.939 152.572 180.172 152.985C180.411 153.398 180.53 153.88 180.53 154.429C180.53 154.978 180.408 155.462 180.162 155.882C179.923 156.295 179.597 156.615 179.184 156.841C178.77 157.067 178.312 157.18 177.808 157.18ZM177.808 156.405C178.124 156.405 178.421 156.331 178.699 156.182C178.977 156.034 179.2 155.811 179.368 155.514C179.542 155.217 179.629 154.855 179.629 154.429C179.629 154.002 179.545 153.641 179.377 153.343C179.209 153.046 178.99 152.827 178.719 152.685C178.447 152.536 178.153 152.462 177.837 152.462C177.514 152.462 177.217 152.536 176.946 152.685C176.681 152.827 176.468 153.046 176.306 153.343C176.145 153.641 176.064 154.002 176.064 154.429C176.064 154.861 176.142 155.226 176.297 155.523C176.458 155.82 176.671 156.043 176.936 156.192C177.201 156.334 177.491 156.405 177.808 156.405ZM183.569 157.18C183.162 157.18 182.797 157.112 182.474 156.977C182.151 156.834 181.896 156.641 181.709 156.395C181.521 156.143 181.418 155.856 181.399 155.533H182.309C182.335 155.798 182.458 156.014 182.678 156.182C182.904 156.35 183.198 156.434 183.559 156.434C183.895 156.434 184.16 156.36 184.354 156.211C184.547 156.063 184.644 155.875 184.644 155.649C184.644 155.417 184.541 155.246 184.334 155.136C184.128 155.02 183.808 154.906 183.375 154.797C182.981 154.693 182.658 154.59 182.406 154.487C182.161 154.377 181.948 154.219 181.767 154.012C181.593 153.799 181.505 153.521 181.505 153.179C181.505 152.908 181.586 152.659 181.748 152.433C181.909 152.207 182.138 152.029 182.435 151.9C182.733 151.764 183.072 151.697 183.453 151.697C184.04 151.697 184.515 151.845 184.877 152.142C185.238 152.439 185.432 152.846 185.458 153.363H184.576C184.557 153.085 184.444 152.862 184.237 152.694C184.037 152.526 183.766 152.442 183.424 152.442C183.107 152.442 182.855 152.51 182.668 152.646C182.481 152.782 182.387 152.959 182.387 153.179C182.387 153.353 182.442 153.498 182.552 153.615C182.668 153.725 182.81 153.815 182.978 153.886C183.152 153.951 183.391 154.025 183.695 154.109C184.076 154.212 184.386 154.316 184.625 154.419C184.864 154.516 185.067 154.664 185.235 154.865C185.41 155.065 185.5 155.326 185.507 155.649C185.507 155.94 185.426 156.201 185.264 156.434C185.103 156.666 184.874 156.851 184.576 156.986C184.286 157.115 183.95 157.18 183.569 157.18ZM187.662 155.872L186.577 158.478H185.986L186.693 155.872H187.662ZM197.639 151.687C198.052 151.687 198.42 151.774 198.743 151.948C199.066 152.116 199.321 152.371 199.509 152.714C199.696 153.056 199.79 153.473 199.79 153.964V157.093H198.918V154.089C198.918 153.56 198.785 153.156 198.521 152.878C198.262 152.594 197.91 152.452 197.465 152.452C197.006 152.452 196.641 152.601 196.37 152.898C196.099 153.188 195.963 153.612 195.963 154.167V157.093H195.091V154.089C195.091 153.56 194.959 153.156 194.694 152.878C194.435 152.594 194.083 152.452 193.638 152.452C193.179 152.452 192.814 152.601 192.543 152.898C192.272 153.188 192.136 153.612 192.136 154.167V157.093H191.255V151.784H192.136V152.549C192.311 152.271 192.543 152.058 192.834 151.91C193.131 151.761 193.457 151.687 193.812 151.687C194.258 151.687 194.652 151.787 194.994 151.987C195.336 152.187 195.592 152.481 195.759 152.869C195.908 152.494 196.153 152.204 196.496 151.997C196.838 151.79 197.219 151.687 197.639 151.687ZM200.906 154.419C200.906 153.876 201.016 153.402 201.236 152.995C201.455 152.581 201.756 152.262 202.137 152.036C202.524 151.81 202.954 151.697 203.425 151.697C203.89 151.697 204.294 151.797 204.636 151.997C204.979 152.197 205.234 152.449 205.402 152.753V151.784H206.293V157.093H205.402V156.105C205.227 156.415 204.966 156.673 204.617 156.88C204.275 157.08 203.874 157.18 203.416 157.18C202.944 157.18 202.518 157.064 202.137 156.831C201.756 156.599 201.455 156.273 201.236 155.853C201.016 155.433 200.906 154.955 200.906 154.419ZM205.402 154.429C205.402 154.028 205.321 153.679 205.16 153.382C204.998 153.085 204.778 152.859 204.501 152.704C204.229 152.543 203.929 152.462 203.6 152.462C203.27 152.462 202.97 152.539 202.699 152.694C202.428 152.849 202.211 153.075 202.05 153.373C201.888 153.67 201.807 154.018 201.807 154.419C201.807 154.826 201.888 155.181 202.05 155.485C202.211 155.782 202.428 156.011 202.699 156.172C202.97 156.327 203.27 156.405 203.6 156.405C203.929 156.405 204.229 156.327 204.501 156.172C204.778 156.011 204.998 155.782 205.16 155.485C205.321 155.181 205.402 154.829 205.402 154.429ZM208.665 152.646C208.82 152.342 209.039 152.107 209.323 151.939C209.614 151.771 209.966 151.687 210.379 151.687V152.598H210.147C209.159 152.598 208.665 153.134 208.665 154.206V157.093H207.783V151.784H208.665V152.646ZM211.068 154.429C211.068 153.88 211.177 153.402 211.397 152.995C211.617 152.581 211.92 152.262 212.308 152.036C212.702 151.81 213.151 151.697 213.654 151.697C214.307 151.697 214.843 151.855 215.263 152.171C215.689 152.488 215.97 152.927 216.105 153.489H215.156C215.066 153.166 214.888 152.911 214.623 152.723C214.365 152.536 214.042 152.442 213.654 152.442C213.151 152.442 212.744 152.617 212.434 152.966C212.124 153.308 211.969 153.796 211.969 154.429C211.969 155.068 212.124 155.562 212.434 155.911C212.744 156.26 213.151 156.434 213.654 156.434C214.042 156.434 214.365 156.344 214.623 156.163C214.881 155.982 215.059 155.724 215.156 155.388H216.105C215.963 155.93 215.679 156.366 215.253 156.696C214.827 157.018 214.294 157.18 213.654 157.18C213.151 157.18 212.702 157.067 212.308 156.841C211.92 156.615 211.617 156.295 211.397 155.882C211.177 155.468 211.068 154.984 211.068 154.429ZM216.952 154.419C216.952 153.876 217.062 153.402 217.282 152.995C217.501 152.581 217.802 152.262 218.183 152.036C218.57 151.81 219 151.697 219.471 151.697C219.936 151.697 220.34 151.797 220.682 151.997C221.025 152.197 221.28 152.449 221.448 152.753V151.784H222.339V157.093H221.448V156.105C221.273 156.415 221.012 156.673 220.663 156.88C220.321 157.08 219.92 157.18 219.462 157.18C218.99 157.18 218.564 157.064 218.183 156.831C217.802 156.599 217.501 156.273 217.282 155.853C217.062 155.433 216.952 154.955 216.952 154.419ZM221.448 154.429C221.448 154.028 221.367 153.679 221.205 153.382C221.044 153.085 220.824 152.859 220.547 152.704C220.275 152.543 219.975 152.462 219.646 152.462C219.316 152.462 219.016 152.539 218.745 152.694C218.473 152.849 218.257 153.075 218.096 153.373C217.934 153.67 217.853 154.018 217.853 154.419C217.853 154.826 217.934 155.181 218.096 155.485C218.257 155.782 218.473 156.011 218.745 156.172C219.016 156.327 219.316 156.405 219.646 156.405C219.975 156.405 220.275 156.327 220.547 156.172C220.824 156.011 221.044 155.782 221.205 155.485C221.367 155.181 221.448 154.829 221.448 154.429ZM225.708 157.18C225.301 157.18 224.936 157.112 224.613 156.977C224.291 156.834 224.035 156.641 223.848 156.395C223.661 156.143 223.557 155.856 223.538 155.533H224.449C224.475 155.798 224.597 156.014 224.817 156.182C225.043 156.35 225.337 156.434 225.699 156.434C226.034 156.434 226.299 156.36 226.493 156.211C226.687 156.063 226.784 155.875 226.784 155.649C226.784 155.417 226.68 155.246 226.474 155.136C226.267 155.02 225.947 154.906 225.514 154.797C225.121 154.693 224.798 154.59 224.546 154.487C224.3 154.377 224.087 154.219 223.906 154.012C223.732 153.799 223.645 153.521 223.645 153.179C223.645 152.908 223.725 152.659 223.887 152.433C224.048 152.207 224.278 152.029 224.575 151.9C224.872 151.764 225.211 151.697 225.592 151.697C226.18 151.697 226.654 151.845 227.016 152.142C227.378 152.439 227.572 152.846 227.597 153.363H226.716C226.696 153.085 226.583 152.862 226.377 152.694C226.177 152.526 225.905 152.442 225.563 152.442C225.246 152.442 224.995 152.51 224.807 152.646C224.62 152.782 224.526 152.959 224.526 153.179C224.526 153.353 224.581 153.498 224.691 153.615C224.807 153.725 224.949 153.815 225.117 153.886C225.292 153.951 225.531 154.025 225.834 154.109C226.215 154.212 226.525 154.316 226.764 154.419C227.003 154.516 227.207 154.664 227.375 154.865C227.549 155.065 227.639 155.326 227.646 155.649C227.646 155.94 227.565 156.201 227.404 156.434C227.242 156.666 227.013 156.851 226.716 156.986C226.425 157.115 226.089 157.18 225.708 157.18ZM236.046 151.784L232.849 159.592H231.938L232.985 157.035L230.844 151.784H231.822L233.488 156.085L235.135 151.784H236.046ZM245.9 151.687C246.313 151.687 246.681 151.774 247.004 151.948C247.327 152.116 247.582 152.371 247.769 152.714C247.957 153.056 248.05 153.473 248.05 153.964V157.093H247.178V154.089C247.178 153.56 247.046 153.156 246.781 152.878C246.523 152.594 246.171 152.452 245.725 152.452C245.267 152.452 244.902 152.601 244.63 152.898C244.359 153.188 244.224 153.612 244.224 154.167V157.093H243.352V154.089C243.352 153.56 243.219 153.156 242.954 152.878C242.696 152.594 242.344 152.452 241.898 152.452C241.44 152.452 241.075 152.601 240.804 152.898C240.532 153.188 240.397 153.612 240.397 154.167V157.093H239.515V151.784H240.397V152.549C240.571 152.271 240.804 152.058 241.094 151.91C241.391 151.761 241.718 151.687 242.073 151.687C242.518 151.687 242.912 151.787 243.255 151.987C243.597 152.187 243.852 152.481 244.02 152.869C244.169 152.494 244.414 152.204 244.756 151.997C245.099 151.79 245.48 151.687 245.9 151.687ZM251.589 157.151C251.421 157.151 251.279 157.093 251.163 156.977C251.047 156.86 250.988 156.718 250.988 156.55C250.988 156.382 251.047 156.24 251.163 156.124C251.279 156.008 251.421 155.95 251.589 155.95C251.751 155.95 251.886 156.008 251.996 156.124C252.112 156.24 252.17 156.382 252.17 156.55C252.17 156.718 252.112 156.86 251.996 156.977C251.886 157.093 251.751 157.151 251.589 157.151ZM253.41 157.151C253.243 157.151 253.1 157.093 252.984 156.977C252.868 156.86 252.81 156.718 252.81 156.55C252.81 156.382 252.868 156.24 252.984 156.124C253.1 156.008 253.243 155.95 253.41 155.95C253.572 155.95 253.708 156.008 253.817 156.124C253.934 156.24 253.992 156.382 253.992 156.55C253.992 156.718 253.934 156.86 253.817 156.977C253.708 157.093 253.572 157.151 253.41 157.151ZM249.777 157.151C249.61 157.151 249.467 157.093 249.351 156.977C249.235 156.86 249.177 156.718 249.177 156.55C249.177 156.382 249.235 156.24 249.351 156.124C249.467 156.008 249.61 155.95 249.777 155.95C249.939 155.95 250.075 156.008 250.184 156.124C250.301 156.24 250.359 156.382 250.359 156.55C250.359 156.718 250.301 156.86 250.184 156.977C250.075 157.093 249.939 157.151 249.777 157.151Z" fill="#98A2B3"/>
<path d="M281.232 157.139L284.911 160.817M283.094 152.643C283.094 156.154 280.248 159.001 276.736 159.001C273.225 159.001 270.378 156.154 270.378 152.643C270.378 149.132 273.225 146.285 276.736 146.285C280.248 146.285 283.094 149.132 283.094 152.643Z" stroke="#101828" stroke-width="1.21101" stroke-linecap="round" stroke-linejoin="round"/>
<g clip-path="url(#clip3_4998_43296)">
<rect x="-12.1917" y="190.689" width="35.5229" height="140.477" rx="6.45872" fill="#D9D9D9"/>
<rect x="29.79" y="190.688" width="276.92" height="140.48" rx="8" fill="#F2F4F7"/>
<path d="M133.214 272.765C132.137 273.842 132.137 275.587 133.214 276.664C134.291 277.741 136.036 277.741 137.113 276.664L133.214 272.765ZM152.499 257.379L154.449 259.328C154.454 259.323 154.459 259.318 154.464 259.313L152.499 257.379ZM156.428 257.379L154.464 259.313C154.469 259.318 154.474 259.323 154.479 259.328L156.428 257.379ZM171.8 272.75L173.764 270.815C173.759 270.81 173.755 270.805 173.75 270.8L171.8 272.75ZM175.729 272.75L173.779 270.8C173.774 270.805 173.769 270.81 173.764 270.815L175.729 272.75ZM182.829 265.65L184.778 267.6C184.783 267.595 184.788 267.59 184.793 267.585L182.829 265.65ZM186.758 265.65L184.793 267.585C184.798 267.59 184.803 267.595 184.808 267.6L186.758 265.65ZM199.387 282.179C200.464 283.255 202.209 283.255 203.286 282.179C204.363 281.102 204.363 279.356 203.286 278.279L199.387 282.179ZM177.9 249.9V247.142H177.9L177.9 249.9ZM177.036 250.204L175.307 248.056L177.036 250.204ZM177.9 251.278L175.752 253.006L176.579 254.035H177.9V251.278ZM137.921 236.114H198.579V230.599H137.921V236.114ZM198.579 236.114H204.094C204.094 233.068 201.625 230.599 198.579 230.599V236.114ZM198.579 236.114V285.743H204.094V236.114H198.579ZM198.579 285.743V291.258C201.625 291.258 204.094 288.789 204.094 285.743H198.579ZM198.579 285.743H137.921V291.258H198.579V285.743ZM137.921 285.743H132.406C132.406 288.789 134.875 291.258 137.921 291.258V285.743ZM137.921 285.743V236.114H132.406V285.743H137.921ZM137.921 236.114V230.599C134.875 230.599 132.406 233.068 132.406 236.114H137.921ZM137.113 276.664L154.449 259.328L150.55 255.429L133.214 272.765L137.113 276.664ZM154.464 259.313V259.313L152.334 254.227C151.66 254.509 151.048 254.923 150.535 255.444L154.464 259.313ZM154.464 259.313H154.464V253.799C153.733 253.799 153.009 253.944 152.334 254.227L154.464 259.313ZM154.464 259.313H154.464L156.594 254.227C155.919 253.944 155.195 253.799 154.464 253.799V259.313ZM154.464 259.313V259.313L158.393 255.444C157.88 254.923 157.268 254.509 156.594 254.227L154.464 259.313ZM154.479 259.328L169.85 274.7L173.75 270.8L158.378 255.429L154.479 259.328ZM169.835 274.685C170.349 275.206 170.96 275.619 171.635 275.902L173.764 270.815L169.835 274.685ZM171.635 275.902C172.309 276.184 173.033 276.33 173.764 276.33V270.815V270.815L171.635 275.902ZM173.764 276.33C174.496 276.33 175.22 276.184 175.894 275.902L173.764 270.815V270.815V276.33ZM175.894 275.902C176.569 275.619 177.18 275.206 177.693 274.685L173.764 270.815L175.894 275.902ZM177.679 274.7L184.778 267.6L180.879 263.701L173.779 270.8L177.679 274.7ZM184.793 267.585L182.663 262.498C181.989 262.781 181.377 263.194 180.864 263.716L184.793 267.585ZM184.793 267.585V267.585V262.07C184.062 262.07 183.338 262.216 182.663 262.498L184.793 267.585ZM184.793 267.585V267.585L186.923 262.498C186.248 262.216 185.524 262.07 184.793 262.07V267.585ZM184.793 267.585L188.722 263.716C188.209 263.194 187.597 262.781 186.923 262.498L184.793 267.585ZM184.808 267.6L199.387 282.179L203.286 278.279L188.707 263.701L184.808 267.6ZM177.9 249.9C178.661 249.9 179.279 250.517 179.279 251.278H173.764C173.764 253.563 175.616 255.414 177.9 255.414V249.9ZM176.522 251.278C176.522 250.517 177.139 249.9 177.9 249.9V255.414C180.184 255.414 182.036 253.562 182.036 251.278H176.522ZM177.9 252.657C177.139 252.657 176.522 252.04 176.522 251.278H182.036C182.036 248.994 180.184 247.142 177.9 247.142V252.657ZM175.95 251.849L177.329 253.228L181.228 249.329L179.85 247.95L175.95 251.849ZM177.9 247.142C176.92 247.142 176.015 247.486 175.307 248.056L178.765 252.352C178.53 252.541 178.226 252.657 177.9 252.657L177.9 247.142ZM175.307 248.056C174.371 248.81 173.764 249.974 173.764 251.278H179.279C179.279 251.714 179.073 252.104 178.765 252.352L175.307 248.056ZM174.888 251.932C175.233 252.362 175.449 252.63 175.579 252.791C175.644 252.872 175.687 252.926 175.714 252.959C175.727 252.976 175.737 252.988 175.743 252.995C175.746 252.999 175.748 253.002 175.749 253.004C175.75 253.004 175.751 253.005 175.751 253.005C175.751 253.006 175.751 253.006 175.751 253.006C175.751 253.006 175.752 253.006 175.752 253.006C175.752 253.006 175.752 253.006 175.752 253.006C175.752 253.006 175.752 253.006 175.752 253.006C175.752 253.006 175.752 253.006 177.9 251.278C180.049 249.55 180.049 249.55 180.049 249.55C180.049 249.55 180.049 249.55 180.049 249.55C180.049 249.55 180.049 249.55 180.049 249.55C180.049 249.55 180.049 249.55 180.049 249.55C180.049 249.55 180.049 249.55 180.048 249.55C180.048 249.549 180.047 249.549 180.047 249.548C180.045 249.546 180.043 249.543 180.04 249.539C180.034 249.532 180.025 249.52 180.011 249.503C179.984 249.47 179.941 249.416 179.876 249.336C179.746 249.174 179.53 248.906 179.185 248.476L174.888 251.932ZM177.9 254.035H179.279V248.521H177.9V254.035Z" fill="#667085"/>
<rect x="313.169" y="190.689" width="35.5229" height="140.477" rx="6.45872" fill="#D9D9D9"/>
</g>
<rect x="29.7913" y="350.545" width="87.8951" height="33.4804" rx="16.7402" fill="#D9D9D9"/>
<rect x="120.916" y="350.734" width="90.422" height="33.1009" rx="16.5505" fill="#D9D9D9"/>
<rect x="214.567" y="350.734" width="92.844" height="33.1009" rx="16.5505" fill="#D9D9D9"/>
<rect x="29.7913" y="403.401" width="143.706" height="14.5321" rx="7.26606" fill="#D9D9D9"/>
<rect x="259.076" y="403.401" width="47.633" height="14.5321" rx="7.26606" fill="#D9D9D9"/>
<g clip-path="url(#clip4_4998_43296)">
<rect x="29.7913" y="437.31" width="119.486" height="140.477" rx="6.45872" fill="#D9D9D9"/>
<rect x="162.195" y="437.31" width="119.486" height="140.477" rx="6.45872" fill="#D9D9D9"/>
<rect x="294.599" y="437.31" width="119.486" height="140.477" rx="6.45872" fill="#D9D9D9"/>
</g>
</g>
<rect x="-5" y="-12" width="347" height="579" fill="#121212" fill-opacity="0.6"/>
<rect x="63" y="128.088" width="212" height="299.08" rx="3.64731" fill="#F2F4F7"/>
<path d="M128.141 291.431C126.885 292.687 126.885 294.723 128.141 295.979C129.397 297.234 131.433 297.234 132.688 295.979L128.141 291.431ZM150.632 273.488L152.905 275.762C152.911 275.756 152.917 275.75 152.923 275.744L150.632 273.488ZM155.214 273.488L152.923 275.744C152.928 275.75 152.934 275.756 152.94 275.762L155.214 273.488ZM173.14 291.414L175.431 289.158C175.425 289.152 175.419 289.146 175.413 289.14L173.14 291.414ZM177.722 291.414L175.448 289.14C175.442 289.146 175.436 289.152 175.431 289.158L177.722 291.414ZM186.001 283.134L188.275 285.408C188.281 285.402 188.287 285.396 188.292 285.39L186.001 283.134ZM190.583 283.134L188.292 285.39C188.298 285.396 188.304 285.402 188.31 285.408L190.583 283.134ZM205.311 302.409C206.567 303.665 208.603 303.665 209.859 302.409C211.114 301.154 211.114 299.118 209.859 297.862L205.311 302.409ZM180.254 264.766V261.551H180.253L180.254 264.766ZM179.246 265.121L177.23 262.616L179.246 265.121ZM180.254 266.374L177.748 268.389L178.713 269.589H180.254V266.374ZM133.63 248.689H204.369V242.258H133.63V248.689ZM204.369 248.689H210.8C210.8 245.137 207.921 242.258 204.369 242.258V248.689ZM204.369 248.689V306.567H210.8V248.689H204.369ZM204.369 306.567V312.997C207.921 312.997 210.8 310.118 210.8 306.567H204.369ZM204.369 306.567H133.63V312.997H204.369V306.567ZM133.63 306.567H133.63H127.199C127.199 310.118 130.079 312.997 133.63 312.997V306.567ZM133.63 306.567V248.689H127.199V306.567H133.63ZM133.63 248.689H133.63V242.258C130.079 242.258 127.199 245.137 127.199 248.689H133.63ZM132.688 295.979L152.905 275.762L148.358 271.214L128.141 291.431L132.688 295.979ZM152.923 275.744L150.439 269.812C149.652 270.142 148.939 270.624 148.341 271.232L152.923 275.744ZM152.923 275.744V269.313C152.07 269.313 151.226 269.483 150.439 269.812L152.923 275.744ZM152.923 275.744H152.923L155.406 269.812C154.62 269.483 153.776 269.313 152.923 269.313V275.744ZM152.923 275.744L157.505 271.232C156.906 270.624 156.193 270.142 155.406 269.812L152.923 275.744ZM152.94 275.762L170.866 293.688L175.413 289.14L157.487 271.214L152.94 275.762ZM170.849 293.67C171.447 294.278 172.16 294.76 172.947 295.09L175.431 289.158L170.849 293.67ZM172.947 295.09C173.734 295.419 174.578 295.589 175.431 295.589V289.158V289.158L172.947 295.09ZM175.431 295.589C176.283 295.589 177.128 295.419 177.914 295.09L175.431 289.158L175.431 289.158V295.589ZM177.914 295.09C178.701 294.76 179.414 294.278 180.013 293.67L175.431 289.158L177.914 295.09ZM179.995 293.688L188.275 285.408L183.728 280.861L175.448 289.14L179.995 293.688ZM188.292 285.39L185.809 279.459C185.022 279.788 184.309 280.27 183.71 280.878L188.292 285.39ZM188.292 285.39H188.292V278.96C187.44 278.96 186.595 279.129 185.809 279.459L188.292 285.39ZM188.292 285.39L190.776 279.459C189.989 279.129 189.145 278.96 188.292 278.96V285.39ZM188.292 285.39L192.874 280.878C192.276 280.27 191.563 279.788 190.776 279.459L188.292 285.39ZM188.31 285.408L205.311 302.409L209.859 297.862L192.857 280.861L188.31 285.408ZM180.254 264.766C181.141 264.766 181.861 265.486 181.861 266.374H175.431C175.431 269.038 177.591 271.197 180.254 271.197V264.766ZM178.646 266.374C178.646 265.486 179.366 264.766 180.254 264.766V271.197C182.918 271.197 185.077 269.038 185.077 266.374H178.646ZM180.254 267.981C179.366 267.981 178.646 267.262 178.646 266.374H185.077C185.077 263.71 182.917 261.551 180.254 261.551V267.981ZM177.98 267.04L179.588 268.648L184.135 264.1L182.527 262.492L177.98 267.04ZM180.253 261.551C179.111 261.551 178.055 261.952 177.23 262.616L181.263 267.626C180.989 267.846 180.633 267.981 180.254 267.981L180.253 261.551ZM177.23 262.616C176.139 263.495 175.431 264.853 175.431 266.374H181.861C181.861 266.882 181.622 267.336 181.263 267.626L177.23 262.616ZM176.741 267.136C177.144 267.637 177.395 267.95 177.547 268.138C177.622 268.232 177.673 268.295 177.704 268.334C177.72 268.354 177.731 268.367 177.738 268.376C177.741 268.381 177.744 268.384 177.746 268.386C177.746 268.387 177.747 268.388 177.747 268.388C177.748 268.388 177.748 268.389 177.748 268.389C177.748 268.389 177.748 268.389 177.748 268.389C177.748 268.389 177.748 268.389 177.748 268.389C177.748 268.389 177.748 268.389 177.748 268.389C177.748 268.389 177.748 268.389 180.254 266.374C182.76 264.359 182.76 264.359 182.76 264.359C182.76 264.359 182.76 264.359 182.76 264.359C182.76 264.359 182.76 264.359 182.759 264.359C182.759 264.359 182.759 264.359 182.759 264.359C182.759 264.359 182.759 264.358 182.759 264.358C182.759 264.358 182.758 264.357 182.757 264.356C182.755 264.354 182.753 264.351 182.749 264.346C182.742 264.337 182.731 264.324 182.715 264.304C182.684 264.265 182.634 264.202 182.558 264.108C182.407 263.92 182.155 263.607 181.752 263.106L176.741 267.136ZM180.254 269.589H181.862V263.158H180.254V269.589Z" fill="#667085"/>
</g>
</g>
<defs>
<filter id="filter0_d_4998_43296" x="0.72699" y="0.963302" width="335.046" height="560.294" filterUnits="userSpaceOnUse" color-interpolation-filters="sRGB">
<feFlood flood-opacity="0" result="BackgroundImageFix"/>
<feColorMatrix in="SourceAlpha" type="matrix" values="0 0 0 0 0 0 0 0 0 0 0 0 0 0 0 0 0 0 127 0" result="hardAlpha"/>
<feOffset dy="12.1101"/>
<feGaussianBlur stdDeviation="8.07339"/>
<feColorMatrix type="matrix" values="0 0 0 0 0 0 0 0 0 0 0 0 0 0 0 0 0 0 0.04 0"/>
<feBlend mode="normal" in2="BackgroundImageFix" result="effect1_dropShadow_4998_43296"/>
<feBlend mode="normal" in="SourceGraphic" in2="effect1_dropShadow_4998_43296" result="shape"/>
</filter>
<filter id="filter1_dd_4998_43296" x="28.5306" y="86.5967" width="135.732" height="42.7786" filterUnits="userSpaceOnUse" color-interpolation-filters="sRGB">
<feFlood flood-opacity="0" result="BackgroundImageFix"/>
<feColorMatrix in="SourceAlpha" type="matrix" values="0 0 0 0 0 0 0 0 0 0 0 0 0 0 0 0 0 0 127 0" result="hardAlpha"/>
<feMorphology radius="1.28656" operator="erode" in="SourceAlpha" result="effect1_dropShadow_4998_43296"/>
<feOffset dy="2.57312"/>
<feGaussianBlur stdDeviation="1.92984"/>
<feColorMatrix type="matrix" values="0 0 0 0 0.0627451 0 0 0 0 0.0941176 0 0 0 0 0.156863 0 0 0 0.05 0"/>
<feBlend mode="normal" in2="BackgroundImageFix" result="effect1_dropShadow_4998_43296"/>
<feColorMatrix in="SourceAlpha" type="matrix" values="0 0 0 0 0 0 0 0 0 0 0 0 0 0 0 0 0 0 127 0" result="hardAlpha"/>
<feMorphology radius="2.57312" operator="erode" in="SourceAlpha" result="effect2_dropShadow_4998_43296"/>
<feOffset dy="7.71937"/>
<feGaussianBlur stdDeviation="5.14625"/>
<feColorMatrix type="matrix" values="0 0 0 0 0.0627451 0 0 0 0 0.0941176 0 0 0 0 0.156863 0 0 0 0.1 0"/>
<feBlend mode="normal" in2="effect1_dropShadow_4998_43296" result="effect2_dropShadow_4998_43296"/>
<feBlend mode="normal" in="SourceGraphic" in2="effect2_dropShadow_4998_43296" result="shape"/>
</filter>
<clipPath id="clip0_4998_43296">
<rect x="16.8738" y="5" width="302.752" height="528" rx="6.45872" fill="white"/>
</clipPath>
<clipPath id="clip1_4998_43296">
<rect width="302.752" height="521.541" fill="white" transform="translate(16.8738 11.459)"/>
</clipPath>
<clipPath id="clip2_4998_43296">
<rect width="120.294" height="27.3394" fill="white" transform="translate(36.25 86.5967)"/>
</clipPath>
<clipPath id="clip3_4998_43296">
<rect width="302.752" height="140.48" fill="white" transform="translate(16.8738 190.688)"/>
</clipPath>
<clipPath id="clip4_4998_43296">
<rect width="302.752" height="140.477" fill="white" transform="translate(16.8738 437.31)"/>
</clipPath>
</defs>
</svg>
